<?xml version="1.0" encoding="UTF-8"?>
<?xml-stylesheet href="https://cdnjs.cloudflare.com/ajax/libs/font-awesome/6.7.2/css/all.min.css" type="text/css"?>
<svg id="graph-265" width="100%" xmlns="http://www.w3.org/2000/svg" class="flowchart" style="overflow: hidden; max-width: 100%; touch-action: none; user-select: none; -webkit-user-drag: none; -webkit-tap-highlight-color: rgba(0, 0, 0, 0); background-color: rgb(255, 255, 255);" role="graphics-document document" aria-roledescription="flowchart-elk" height="100%" xmlns:xlink="http://www.w3.org/1999/xlink" xmlns:ev="http://www.w3.org/2001/xml-events"><g id="viewport-20251218184028525" class="svg-pan-zoom_viewport" transform="matrix(0.4310657854226552,0,0,0.4310657854226552,211.89204803755052,280.0973242746646)" style="transform: matrix(0.431066, 0, 0, 0.431066, 211.892, 280.097);"><style>#graph-265{font-family:"trebuchet ms",verdana,arial,sans-serif;font-size:16px;fill:#333;}@keyframes edge-animation-frame{from{stroke-dashoffset:0;}}@keyframes dash{to{stroke-dashoffset:0;}}#graph-265 .edge-animation-slow{stroke-dasharray:9,5!important;stroke-dashoffset:900;animation:dash 50s linear infinite;stroke-linecap:round;}#graph-265 .edge-animation-fast{stroke-dasharray:9,5!important;stroke-dashoffset:900;animation:dash 20s linear infinite;stroke-linecap:round;}#graph-265 .error-icon{fill:#552222;}#graph-265 .error-text{fill:#552222;stroke:#552222;}#graph-265 .edge-thickness-normal{stroke-width:1px;}#graph-265 .edge-thickness-thick{stroke-width:3.5px;}#graph-265 .edge-pattern-solid{stroke-dasharray:0;}#graph-265 .edge-thickness-invisible{stroke-width:0;fill:none;}#graph-265 .edge-pattern-dashed{stroke-dasharray:3;}#graph-265 .edge-pattern-dotted{stroke-dasharray:2;}#graph-265 .marker{fill:#333333;stroke:#333333;}#graph-265 .marker.cross{stroke:#333333;}#graph-265 svg{font-family:"trebuchet ms",verdana,arial,sans-serif;font-size:16px;}#graph-265 p{margin:0;}#graph-265 .label{font-family:"trebuchet ms",verdana,arial,sans-serif;color:#333;}#graph-265 .cluster-label text{fill:#333;}#graph-265 .cluster-label span{color:#333;}#graph-265 .cluster-label span p{background-color:transparent;}#graph-265 .label text,#graph-265 span{fill:#333;color:#333;}#graph-265 .node rect,#graph-265 .node circle,#graph-265 .node ellipse,#graph-265 .node polygon,#graph-265 .node path{fill:#ECECFF;stroke:#9370DB;stroke-width:1px;}#graph-265 .rough-node .label text,#graph-265 .node .label text,#graph-265 .image-shape .label,#graph-265 .icon-shape .label{text-anchor:middle;}#graph-265 .node .katex path{fill:#000;stroke:#000;stroke-width:1px;}#graph-265 .rough-node .label,#graph-265 .node .label,#graph-265 .image-shape .label,#graph-265 .icon-shape .label{text-align:center;}#graph-265 .node.clickable{cursor:pointer;}#graph-265 .root .anchor path{fill:#333333!important;stroke-width:0;stroke:#333333;}#graph-265 .arrowheadPath{fill:#333333;}#graph-265 .edgePath .path{stroke:#333333;stroke-width:2.0px;}#graph-265 .flowchart-link{stroke:#333333;fill:none;}#graph-265 .edgeLabel{background-color:rgba(232,232,232, 0.8);text-align:center;}#graph-265 .edgeLabel p{background-color:rgba(232,232,232, 0.8);}#graph-265 .edgeLabel rect{opacity:0.5;background-color:rgba(232,232,232, 0.8);fill:rgba(232,232,232, 0.8);}#graph-265 .labelBkg{background-color:rgba(232, 232, 232, 0.5);}#graph-265 .cluster rect{fill:#ffffde;stroke:#aaaa33;stroke-width:1px;}#graph-265 .cluster text{fill:#333;}#graph-265 .cluster span{color:#333;}#graph-265 div.mermaidTooltip{position:absolute;text-align:center;max-width:200px;padding:2px;font-family:"trebuchet ms",verdana,arial,sans-serif;font-size:12px;background:hsl(80, 100%, 96.2745098039%);border:1px solid #aaaa33;border-radius:2px;pointer-events:none;z-index:100;}#graph-265 .flowchartTitleText{text-anchor:middle;font-size:18px;fill:#333;}#graph-265 rect.text{fill:none;stroke-width:0;}#graph-265 .icon-shape,#graph-265 .image-shape{background-color:rgba(232,232,232, 0.8);text-align:center;}#graph-265 .icon-shape p,#graph-265 .image-shape p{background-color:rgba(232,232,232, 0.8);padding:2px;}#graph-265 .icon-shape rect,#graph-265 .image-shape rect{opacity:0.5;background-color:rgba(232,232,232, 0.8);fill:rgba(232,232,232, 0.8);}#graph-265 .label-icon{display:inline-block;height:1em;overflow:visible;vertical-align:-0.125em;}#graph-265 .node .label-icon path{fill:currentColor;stroke:revert;stroke-width:revert;}#graph-265 :root{--mermaid-font-family:"trebuchet ms",verdana,arial,sans-serif;}</style><g><marker id="graph-265_flowchart-elk-pointEnd" class="marker flowchart-elk" viewBox="0 0 10 10" refX="5" refY="5" markerUnits="userSpaceOnUse" markerWidth="8" markerHeight="8" orient="auto"><path d="M 0 0 L 10 5 L 0 10 z" class="arrowMarkerPath" style="stroke-width: 1; stroke-dasharray: 1, 0;"></path></marker><marker id="graph-265_flowchart-elk-pointStart" class="marker flowchart-elk" viewBox="0 0 10 10" refX="4.5" refY="5" markerUnits="userSpaceOnUse" markerWidth="8" markerHeight="8" orient="auto"><path d="M 0 5 L 10 10 L 10 0 z" class="arrowMarkerPath" style="stroke-width: 1; stroke-dasharray: 1, 0;"></path></marker><marker id="graph-265_flowchart-elk-circleEnd" class="marker flowchart-elk" viewBox="0 0 10 10" refX="11" refY="5" markerUnits="userSpaceOnUse" markerWidth="11" markerHeight="11" orient="auto"><circle cx="5" cy="5" r="5" class="arrowMarkerPath" style="stroke-width: 1; stroke-dasharray: 1, 0;"></circle></marker><marker id="graph-265_flowchart-elk-circleStart" class="marker flowchart-elk" viewBox="0 0 10 10" refX="-1" refY="5" markerUnits="userSpaceOnUse" markerWidth="11" markerHeight="11" orient="auto"><circle cx="5" cy="5" r="5" class="arrowMarkerPath" style="stroke-width: 1; stroke-dasharray: 1, 0;"></circle></marker><marker id="graph-265_flowchart-elk-crossEnd" class="marker cross flowchart-elk" viewBox="0 0 11 11" refX="12" refY="5.2" markerUnits="userSpaceOnUse" markerWidth="11" markerHeight="11" orient="auto"><path d="M 1,1 l 9,9 M 10,1 l -9,9" class="arrowMarkerPath" style="stroke-width: 2; stroke-dasharray: 1, 0;"></path></marker><marker id="graph-265_flowchart-elk-crossStart" class="marker cross flowchart-elk" viewBox="0 0 11 11" refX="-1" refY="5.2" markerUnits="userSpaceOnUse" markerWidth="11" markerHeight="11" orient="auto"><path d="M 1,1 l 9,9 M 10,1 l -9,9" class="arrowMarkerPath" style="stroke-width: 2; stroke-dasharray: 1, 0;"></path></marker></g><g class="subgraphs"><g class="subgraph"><g class="cluster" id="STORE" data-look="classic"><rect style="" x="1141.234375" y="111" width="273.265625" height="225"></rect><g class="cluster-label" transform="translate(1190.640625, 111)"><foreignObject width="174.453125" height="24"><div xmlns="http://www.w3.org/1999/xhtml" style="display: table-cell; white-space: nowrap; line-height: 1.5; max-width: 200px; text-align: center;"><span class="nodeLabel"><p>Store App (STORE_USER)</p></span></div></foreignObject></g></g></g><g class="subgraph"><g class="cluster" id="PSP" data-look="classic"><rect style="" x="601.859375" y="42" width="284" height="273"></rect><g class="cluster-label" transform="translate(643.859375, 42)"><foreignObject width="200" height="48"><div xmlns="http://www.w3.org/1999/xhtml" style="display: table; white-space: break-spaces; line-height: 1.5; max-width: 200px; text-align: center; width: 200px;"><span class="nodeLabel"><p>PSP Portal (PSP_ADMIN / PSP_OPS / INTEGRATION)</p></span></div></foreignObject></g></g></g><g class="subgraph"><g class="cluster" id="BRAND" data-look="classic"><rect style="" x="37" y="84" width="294.078125" height="345"></rect><g class="cluster-label" transform="translate(84.0390625, 84)"><foreignObject width="200" height="48"><div xmlns="http://www.w3.org/1999/xhtml" style="display: table; white-space: break-spaces; line-height: 1.5; max-width: 200px; text-align: center; width: 200px;"><span class="nodeLabel"><p>Brand Portal (BRAND / REGIONAL)</p></span></div></foreignObject></g></g></g></g><g class="nodes"><g class="node default" id="flowchart-S-2" transform="translate(1277.8671875, 237)"><rect class="basic label-container" style="" x="-124.6328125" y="-87" width="249.265625" height="174"></rect><g class="label" style="" transform="translate(-94.6328125, -72)"><rect></rect><foreignObject width="189.265625" height="144"><div xmlns="http://www.w3.org/1999/xhtml" style="display: table-cell; white-space: nowrap; line-height: 1.5; max-width: 200px; text-align: center;"><span class="nodeLabel"><p>Owns execution<br/>• Receive/Verify<br/>• Install<br/>• Proof Capture<br/>• Attestation/Complete<br/>• Issues/Retakes/Deinstall</p></span></div></foreignObject></g></g><g class="node default" id="flowchart-P-1" transform="translate(743.859375, 204)"><rect class="basic label-container" style="" x="-130" y="-99" width="260" height="198"></rect><g class="label" style="" transform="translate(-100, -84)"><rect></rect><foreignObject width="200" height="168"><div xmlns="http://www.w3.org/1999/xhtml" style="display: table; white-space: break-spaces; line-height: 1.5; max-width: 200px; text-align: center; width: 200px;"><span class="nodeLabel"><p>Owns production + logistics<br/>• Tenant settings (admin)<br/>• Orders/Shipments/Batches<br/>• Tracking + exceptions<br/>• Reorders/replacements<br/>• API + Webhooks</p></span></div></foreignObject></g></g><g class="node default" id="flowchart-B-0" transform="translate(184.0390625, 282)"><rect class="basic label-container" style="" x="-135.0390625" y="-135" width="270.078125" height="270"></rect><g class="label" style="" transform="translate(-105.0390625, -120)"><rect></rect><foreignObject width="210.078125" height="240"><div xmlns="http://www.w3.org/1999/xhtml" style="display: table; white-space: break-spaces; line-height: 1.5; max-width: 200px; text-align: center; width: 200px;"><span class="nodeLabel"><p>Owns configuration + approvals<br/>• Stores/Regions/Groups<br/>• Surveys + Layout + Photo Rules<br/>• Campaigns/Kits/Assignments<br/>• Verification/Retakes/Waivers<br/>• Reporting/Exports</p></span></div></foreignObject></g></g></g><g class="edges edgePaths"><path d="M319.078,237L322.328,237C325.578,237,332.078,237,377.958,237C423.839,237,509.099,237,554.313,237C599.526,237,604.693,237,607.276,237L609.859,237" id="L_B_P_0_0" class="edge-thickness-normal edge-pattern-solid edge-thickness-normal edge-pattern-solid flowchart-link" style=";" data-edge="true" data-et="edge" data-id="L_B_P_0_0" data-points="W3sieCI6MzE5LjA3ODEyNSwieSI6MjM3fSx7IngiOjMzOC41NzgxMjUsInkiOjIzN30seyJ4Ijo1OTQuMzU5Mzc1LCJ5IjoyMzd9LHsieCI6NjEzLjg1OTM3NSwieSI6MjM3fV0=" marker-end="url(#graph-265_flowchart-elk-pointEnd)"></path><path d="M873.859,171L877.109,171C880.359,171,886.859,171,926.422,171C965.984,171,1038.609,171,1075.393,171.362C1112.177,171.724,1113.12,172.448,1113.953,173.281C1114.787,174.114,1115.511,175.057,1115.872,177.612C1116.234,180.167,1116.234,184.333,1116.596,186.888C1116.958,189.443,1117.682,190.386,1118.515,191.219C1119.349,192.052,1120.292,192.776,1122.846,193.138C1125.401,193.5,1129.568,193.5,1134.234,193.5C1138.901,193.5,1144.068,193.5,1146.651,193.5L1149.234,193.5" id="L_P_S_0_0" class="edge-thickness-normal edge-pattern-solid edge-thickness-normal edge-pattern-solid flowchart-link" style=";" data-edge="true" data-et="edge" data-id="L_P_S_0_0" data-points="W3sieCI6ODczLjg1OTM3NSwieSI6MTcxfSx7IngiOjg5My4zNTkzNzUsInkiOjE3MX0seyJ4IjoxMTE2LjIzNDM3NSwieSI6MTcxfSx7IngiOjExMTYuMjM0Mzc1LCJ5IjoxOTMuNX0seyJ4IjoxMTMzLjczNDM3NSwieSI6MTkzLjV9LHsieCI6MTE1My4yMzQzNzUsInkiOjE5My41fV0=" marker-end="url(#graph-265_flowchart-elk-pointEnd)"></path><path d="M1402.5,266L1405.75,266C1409,266,1415.5,266,1420.833,266C1426.167,266,1430.333,266,1432.888,266.362C1435.443,266.724,1436.386,267.448,1437.219,268.281C1438.052,269.114,1438.776,270.057,1439.138,298.945C1439.5,327.833,1439.5,384.667,1439.138,413.555C1438.776,442.443,1438.052,443.386,1437.219,444.219C1436.386,445.052,1435.443,445.776,1408.866,446.138C1382.289,446.5,1330.078,446.5,1259.919,446.5C1189.76,446.5,1101.654,446.5,966.421,446.5C831.188,446.5,648.828,446.5,510.577,446.5C372.326,446.5,278.182,446.5,203.271,446.5C128.359,446.5,72.68,446.5,44.368,446.138C16.057,445.776,15.114,445.052,14.281,444.219C13.448,443.386,12.724,442.443,12.362,416.221C12,390,12,338.5,12.362,312.279C12.724,286.057,13.448,285.114,14.281,284.281C15.114,283.448,16.057,282.724,18.612,282.362C21.167,282,25.333,282,30,282C34.667,282,39.833,282,42.417,282L45,282" id="L_S_B_0_0" class="edge-thickness-normal edge-pattern-solid edge-thickness-normal edge-pattern-solid flowchart-link" style=";" data-edge="true" data-et="edge" data-id="L_S_B_0_0" data-points="W3sieCI6MTQwMi41LCJ5IjoyNjZ9LHsieCI6MTQyMiwieSI6MjY2fSx7IngiOjE0MzkuNSwieSI6MjY2fSx7IngiOjE0MzkuNSwieSI6NDQ2LjV9LHsieCI6MTI3Ny44NjcxODc1LCJ5Ijo0NDYuNX0seyJ4IjoxMDEzLjU0Njg3NSwieSI6NDQ2LjV9LHsieCI6NDY2LjQ2ODc1LCJ5Ijo0NDYuNX0seyJ4IjoxODQuMDM5MDYyNSwieSI6NDQ2LjV9LHsieCI6MTIsInkiOjQ0Ni41fSx7IngiOjEyLCJ5IjoyODJ9LHsieCI6MjkuNSwieSI6MjgyfSx7IngiOjQ5LCJ5IjoyODJ9XQ==" marker-end="url(#graph-265_flowchart-elk-pointEnd)"></path><path d="M319.078,327L322.328,327C325.578,327,332.078,327,337.411,327C342.745,327,346.911,327,349.466,327.362C352.021,327.724,352.964,328.448,353.797,329.281C354.63,330.114,355.354,331.057,355.716,337.779C356.078,344.5,356.078,357,356.44,363.721C356.802,370.443,357.526,371.386,358.359,372.219C359.193,373.052,360.135,373.776,378.172,374.138C396.208,374.5,431.339,374.5,540.083,374.5C648.828,374.5,831.188,374.5,938.648,374.5C1046.109,374.5,1078.672,374.5,1095.425,374.138C1112.177,373.776,1113.12,373.052,1113.953,372.219C1114.787,371.386,1115.511,370.443,1115.872,355.971C1116.234,341.5,1116.234,313.5,1116.596,299.029C1116.958,284.557,1117.682,283.614,1118.515,282.781C1119.349,281.948,1120.292,281.224,1122.846,280.862C1125.401,280.5,1129.568,280.5,1134.234,280.5C1138.901,280.5,1144.068,280.5,1146.651,280.5L1149.234,280.5" id="L_B_S_0_0" class="edge-thickness-normal edge-pattern-solid edge-thickness-normal edge-pattern-solid flowchart-link" style=";" data-edge="true" data-et="edge" data-id="L_B_S_0_0" data-points="W3sieCI6MzE5LjA3ODEyNSwieSI6MzI3fSx7IngiOjMzOC41NzgxMjUsInkiOjMyN30seyJ4IjozNTYuMDc4MTI1LCJ5IjozMjd9LHsieCI6MzU2LjA3ODEyNSwieSI6Mzc0LjV9LHsieCI6NDY2LjQ2ODc1LCJ5IjozNzQuNX0seyJ4IjoxMDEzLjU0Njg3NSwieSI6Mzc0LjV9LHsieCI6MTExNi4yMzQzNzUsInkiOjM3NC41fSx7IngiOjExMTYuMjM0Mzc1LCJ5IjoyODAuNX0seyJ4IjoxMTMzLjczNDM3NSwieSI6MjgwLjV9LHsieCI6MTE1My4yMzQzNzUsInkiOjI4MC41fV0=" marker-end="url(#graph-265_flowchart-elk-pointEnd)"></path><path d="M1402.5,208L1405.75,208C1409,208,1415.5,208,1420.833,208C1426.167,208,1430.333,208,1432.888,207.638C1435.443,207.276,1436.386,206.552,1437.219,205.719C1438.052,204.886,1438.776,203.943,1439.138,174.555C1439.5,145.167,1439.5,87.333,1439.138,57.945C1438.776,28.557,1438.052,27.614,1437.219,26.781C1436.386,25.948,1435.443,25.224,1408.866,24.862C1382.289,24.5,1330.078,24.5,1214.971,24.5C1099.865,24.5,921.862,24.5,805.861,24.5C689.859,24.5,635.859,24.5,608.388,24.862C580.917,25.224,579.974,25.948,579.14,26.781C578.307,27.614,577.583,28.557,577.221,51.779C576.859,75,576.859,120.5,577.221,143.721C577.583,166.943,578.307,167.886,579.14,168.719C579.974,169.552,580.917,170.276,583.471,170.638C586.026,171,590.193,171,594.859,171C599.526,171,604.693,171,607.276,171L609.859,171" id="L_S_P_0_0" class="edge-thickness-normal edge-pattern-solid edge-thickness-normal edge-pattern-solid flowchart-link" style=";" data-edge="true" data-et="edge" data-id="L_S_P_0_0" data-points="W3sieCI6MTQwMi41LCJ5IjoyMDh9LHsieCI6MTQyMiwieSI6MjA4fSx7IngiOjE0MzkuNSwieSI6MjA4fSx7IngiOjE0MzkuNSwieSI6MjQuNX0seyJ4IjoxMjc3Ljg2NzE4NzUsInkiOjI0LjV9LHsieCI6NzQzLjg1OTM3NSwieSI6MjQuNX0seyJ4Ijo1NzYuODU5Mzc1LCJ5IjoyNC41fSx7IngiOjU3Ni44NTkzNzUsInkiOjE3MX0seyJ4Ijo1OTQuMzU5Mzc1LCJ5IjoxNzF9LHsieCI6NjEzLjg1OTM3NSwieSI6MTcxfV0=" marker-end="url(#graph-265_flowchart-elk-pointEnd)"></path><path d="M873.859,237L877.109,237C880.359,237,886.859,237,930.172,237C973.484,237,1053.609,237,1096.255,237C1138.901,237,1144.068,237,1146.651,237L1149.234,237" id="L_P_S_2_0" class="edge-thickness-normal edge-pattern-solid edge-thickness-normal edge-pattern-solid flowchart-link" style=";" data-edge="true" data-et="edge" data-id="L_P_S_2_0" data-points="W3sieCI6ODczLjg1OTM3NSwieSI6MjM3fSx7IngiOjg5My4zNTkzNzUsInkiOjIzN30seyJ4IjoxMTMzLjczNDM3NSwieSI6MjM3fSx7IngiOjExNTMuMjM0Mzc1LCJ5IjoyMzd9XQ==" marker-end="url(#graph-265_flowchart-elk-pointEnd)"></path></g><g class="edgeLabels"><g class="edgeLabel" transform="translate(466.46875, 236.5)"><g class="label" data-id="L_B_P_0_0" transform="translate(-92.890625, -12)"><foreignObject width="185.78125" height="24"><div xmlns="http://www.w3.org/1999/xhtml" class="labelBkg" style="display: table-cell; white-space: nowrap; line-height: 1.5; max-width: 200px; text-align: center;"><span class="edgeLabel"><p>Publish → Orders Created</p></span></div></foreignObject></g></g><g class="edgeLabel" transform="translate(1013.546875, 170.5)"><g class="label" data-id="L_P_S_0_0" transform="translate(-75.359375, -12)"><foreignObject width="150.71875" height="24"><div xmlns="http://www.w3.org/1999/xhtml" class="labelBkg" style="display: table-cell; white-space: nowrap; line-height: 1.5; max-width: 200px; text-align: center;"><span class="edgeLabel"><p>Shipments + Tracking</p></span></div></foreignObject></g></g><g class="edgeLabel" transform="translate(743.859375, 446)"><g class="label" data-id="L_S_B_0_0" transform="translate(-61.1484375, -12)"><foreignObject width="122.296875" height="24"><div xmlns="http://www.w3.org/1999/xhtml" class="labelBkg" style="display: table-cell; white-space: nowrap; line-height: 1.5; max-width: 200px; text-align: center;"><span class="edgeLabel"><p>Proofs Submitted</p></span></div></foreignObject></g></g><g class="edgeLabel" transform="translate(743.859375, 374)"><g class="label" data-id="L_B_S_0_0" transform="translate(-100, -24)"><foreignObject width="200" height="48"><div xmlns="http://www.w3.org/1999/xhtml" class="labelBkg" style="display: table; white-space: break-spaces; line-height: 1.5; max-width: 200px; text-align: center; width: 200px;"><span class="edgeLabel"><p>Retake Requested (if needed)</p></span></div></foreignObject></g></g><g class="edgeLabel" transform="translate(1013.546875, 24)"><g class="label" data-id="L_S_P_0_0" transform="translate(-85.1875, -12)"><foreignObject width="170.375" height="24"><div xmlns="http://www.w3.org/1999/xhtml" class="labelBkg" style="display: table-cell; white-space: nowrap; line-height: 1.5; max-width: 200px; text-align: center;"><span class="edgeLabel"><p>Issue / Reorder Request</p></span></div></foreignObject></g></g><g class="edgeLabel" transform="translate(1013.546875, 236.5)"><g class="label" data-id="L_P_S_2_0" transform="translate(-77.234375, -12)"><foreignObject width="154.46875" height="24"><div xmlns="http://www.w3.org/1999/xhtml" class="labelBkg" style="display: table-cell; white-space: nowrap; line-height: 1.5; max-width: 200px; text-align: center;"><span class="edgeLabel"><p>Replacement Shipped</p></span></div></foreignObject></g></g></g></g></svg>