<?xml version="1.0" encoding="UTF-8"?>
<?xml-stylesheet href="https://cdnjs.cloudflare.com/ajax/libs/font-awesome/6.7.2/css/all.min.css" type="text/css"?>
<svg id="graph-273" width="100%" xmlns="http://www.w3.org/2000/svg" class="flowchart" style="overflow: hidden; max-width: 100%; touch-action: none; user-select: none; -webkit-user-drag: none; -webkit-tap-highlight-color: rgba(0, 0, 0, 0); background-color: rgb(255, 255, 255);" role="graphics-document document" aria-roledescription="flowchart-elk" height="100%" xmlns:xlink="http://www.w3.org/1999/xlink" xmlns:ev="http://www.w3.org/2001/xml-events"><g id="viewport-20251218184455014" class="svg-pan-zoom_viewport" transform="matrix(0.17463803146082665,0,0,0.17463803146082665,211.89204803755052,280.0973242746646)" style="transform: matrix(0.174638, 0, 0, 0.174638, 211.892, 280.097);"><style>#graph-273{font-family:"trebuchet ms",verdana,arial,sans-serif;font-size:16px;fill:#333;}@keyframes edge-animation-frame{from{stroke-dashoffset:0;}}@keyframes dash{to{stroke-dashoffset:0;}}#graph-273 .edge-animation-slow{stroke-dasharray:9,5!important;stroke-dashoffset:900;animation:dash 50s linear infinite;stroke-linecap:round;}#graph-273 .edge-animation-fast{stroke-dasharray:9,5!important;stroke-dashoffset:900;animation:dash 20s linear infinite;stroke-linecap:round;}#graph-273 .error-icon{fill:#552222;}#graph-273 .error-text{fill:#552222;stroke:#552222;}#graph-273 .edge-thickness-normal{stroke-width:1px;}#graph-273 .edge-thickness-thick{stroke-width:3.5px;}#graph-273 .edge-pattern-solid{stroke-dasharray:0;}#graph-273 .edge-thickness-invisible{stroke-width:0;fill:none;}#graph-273 .edge-pattern-dashed{stroke-dasharray:3;}#graph-273 .edge-pattern-dotted{stroke-dasharray:2;}#graph-273 .marker{fill:#333333;stroke:#333333;}#graph-273 .marker.cross{stroke:#333333;}#graph-273 svg{font-family:"trebuchet ms",verdana,arial,sans-serif;font-size:16px;}#graph-273 p{margin:0;}#graph-273 .label{font-family:"trebuchet ms",verdana,arial,sans-serif;color:#333;}#graph-273 .cluster-label text{fill:#333;}#graph-273 .cluster-label span{color:#333;}#graph-273 .cluster-label span p{background-color:transparent;}#graph-273 .label text,#graph-273 span{fill:#333;color:#333;}#graph-273 .node rect,#graph-273 .node circle,#graph-273 .node ellipse,#graph-273 .node polygon,#graph-273 .node path{fill:#ECECFF;stroke:#9370DB;stroke-width:1px;}#graph-273 .rough-node .label text,#graph-273 .node .label text,#graph-273 .image-shape .label,#graph-273 .icon-shape .label{text-anchor:middle;}#graph-273 .node .katex path{fill:#000;stroke:#000;stroke-width:1px;}#graph-273 .rough-node .label,#graph-273 .node .label,#graph-273 .image-shape .label,#graph-273 .icon-shape .label{text-align:center;}#graph-273 .node.clickable{cursor:pointer;}#graph-273 .root .anchor path{fill:#333333!important;stroke-width:0;stroke:#333333;}#graph-273 .arrowheadPath{fill:#333333;}#graph-273 .edgePath .path{stroke:#333333;stroke-width:2.0px;}#graph-273 .flowchart-link{stroke:#333333;fill:none;}#graph-273 .edgeLabel{background-color:rgba(232,232,232, 0.8);text-align:center;}#graph-273 .edgeLabel p{background-color:rgba(232,232,232, 0.8);}#graph-273 .edgeLabel rect{opacity:0.5;background-color:rgba(232,232,232, 0.8);fill:rgba(232,232,232, 0.8);}#graph-273 .labelBkg{background-color:rgba(232, 232, 232, 0.5);}#graph-273 .cluster rect{fill:#ffffde;stroke:#aaaa33;stroke-width:1px;}#graph-273 .cluster text{fill:#333;}#graph-273 .cluster span{color:#333;}#graph-273 div.mermaidTooltip{position:absolute;text-align:center;max-width:200px;padding:2px;font-family:"trebuchet ms",verdana,arial,sans-serif;font-size:12px;background:hsl(80, 100%, 96.2745098039%);border:1px solid #aaaa33;border-radius:2px;pointer-events:none;z-index:100;}#graph-273 .flowchartTitleText{text-anchor:middle;font-size:18px;fill:#333;}#graph-273 rect.text{fill:none;stroke-width:0;}#graph-273 .icon-shape,#graph-273 .image-shape{background-color:rgba(232,232,232, 0.8);text-align:center;}#graph-273 .icon-shape p,#graph-273 .image-shape p{background-color:rgba(232,232,232, 0.8);padding:2px;}#graph-273 .icon-shape rect,#graph-273 .image-shape rect{opacity:0.5;background-color:rgba(232,232,232, 0.8);fill:rgba(232,232,232, 0.8);}#graph-273 .label-icon{display:inline-block;height:1em;overflow:visible;vertical-align:-0.125em;}#graph-273 .node .label-icon path{fill:currentColor;stroke:revert;stroke-width:revert;}#graph-273 :root{--mermaid-font-family:"trebuchet ms",verdana,arial,sans-serif;}</style><g><marker id="graph-273_flowchart-elk-pointEnd" class="marker flowchart-elk" viewBox="0 0 10 10" refX="5" refY="5" markerUnits="userSpaceOnUse" markerWidth="8" markerHeight="8" orient="auto"><path d="M 0 0 L 10 5 L 0 10 z" class="arrowMarkerPath" style="stroke-width: 1; stroke-dasharray: 1, 0;"></path></marker><marker id="graph-273_flowchart-elk-pointStart" class="marker flowchart-elk" viewBox="0 0 10 10" refX="4.5" refY="5" markerUnits="userSpaceOnUse" markerWidth="8" markerHeight="8" orient="auto"><path d="M 0 5 L 10 10 L 10 0 z" class="arrowMarkerPath" style="stroke-width: 1; stroke-dasharray: 1, 0;"></path></marker><marker id="graph-273_flowchart-elk-circleEnd" class="marker flowchart-elk" viewBox="0 0 10 10" refX="11" refY="5" markerUnits="userSpaceOnUse" markerWidth="11" markerHeight="11" orient="auto"><circle cx="5" cy="5" r="5" class="arrowMarkerPath" style="stroke-width: 1; stroke-dasharray: 1, 0;"></circle></marker><marker id="graph-273_flowchart-elk-circleStart" class="marker flowchart-elk" viewBox="0 0 10 10" refX="-1" refY="5" markerUnits="userSpaceOnUse" markerWidth="11" markerHeight="11" orient="auto"><circle cx="5" cy="5" r="5" class="arrowMarkerPath" style="stroke-width: 1; stroke-dasharray: 1, 0;"></circle></marker><marker id="graph-273_flowchart-elk-crossEnd" class="marker cross flowchart-elk" viewBox="0 0 11 11" refX="12" refY="5.2" markerUnits="userSpaceOnUse" markerWidth="11" markerHeight="11" orient="auto"><path d="M 1,1 l 9,9 M 10,1 l -9,9" class="arrowMarkerPath" style="stroke-width: 2; stroke-dasharray: 1, 0;"></path></marker><marker id="graph-273_flowchart-elk-crossStart" class="marker cross flowchart-elk" viewBox="0 0 11 11" refX="-1" refY="5.2" markerUnits="userSpaceOnUse" markerWidth="11" markerHeight="11" orient="auto"><path d="M 1,1 l 9,9 M 10,1 l -9,9" class="arrowMarkerPath" style="stroke-width: 2; stroke-dasharray: 1, 0;"></path></marker></g><g class="subgraphs"><g class="subgraph"><g class="cluster" id="STORE" data-look="classic"><rect style="" x="1644.40625" y="133" width="695.15625" height="231"></rect><g class="cluster-label" transform="translate(1957.59375, 133)"><foreignObject width="68.78125" height="24"><div xmlns="http://www.w3.org/1999/xhtml" style="display: table-cell; white-space: nowrap; line-height: 1.5; max-width: 200px; text-align: center;"><span class="nodeLabel"><p>Store App</p></span></div></foreignObject></g></g></g><g class="subgraph"><g class="cluster" id="PSP" data-look="classic"><rect style="" x="2624.5625" y="198.5" width="909.21875" height="174.5"></rect><g class="cluster-label" transform="translate(3042.9140625, 198.5)"><foreignObject width="72.515625" height="24"><div xmlns="http://www.w3.org/1999/xhtml" style="display: table-cell; white-space: nowrap; line-height: 1.5; max-width: 200px; text-align: center;"><span class="nodeLabel"><p>PSP Portal</p></span></div></foreignObject></g></g></g><g class="subgraph"><g class="cluster" id="BRAND" data-look="classic"><rect style="" x="37" y="42" width="1407.0625" height="250"></rect><g class="cluster-label" transform="translate(696.2265625, 42)"><foreignObject width="88.609375" height="24"><div xmlns="http://www.w3.org/1999/xhtml" style="display: table-cell; white-space: nowrap; line-height: 1.5; max-width: 200px; text-align: center;"><span class="nodeLabel"><p>Brand Portal</p></span></div></foreignObject></g></g></g></g><g class="nodes"><g class="node default" id="flowchart-S1-10" transform="translate(1764.9296875, 325)"><rect class="basic label-container" style="" x="-108.5234375" y="-27" width="217.046875" height="54"></rect><g class="label" style="" transform="translate(-78.5234375, -12)"><rect></rect><foreignObject width="157.046875" height="24"><div xmlns="http://www.w3.org/1999/xhtml" style="display: table-cell; white-space: nowrap; line-height: 1.5; max-width: 200px; text-align: center;"><span class="nodeLabel"><p>Task: RECEIVE/VERIFY</p></span></div></foreignObject></g></g><g class="node default" id="flowchart-S2-11" transform="translate(1981.796875, 325)"><rect class="basic label-container" style="" x="-78.34375" y="-27" width="156.6875" height="54"></rect><g class="label" style="" transform="translate(-48.34375, -12)"><rect></rect><foreignObject width="96.6875" height="24"><div xmlns="http://www.w3.org/1999/xhtml" style="display: table-cell; white-space: nowrap; line-height: 1.5; max-width: 200px; text-align: center;"><span class="nodeLabel"><p>Task: INSTALL</p></span></div></foreignObject></g></g><g class="node default" id="flowchart-S3-12" transform="translate(2208.8515625, 250)"><rect class="basic label-container" style="" x="-118.7109375" y="-27" width="237.421875" height="54"></rect><g class="label" style="" transform="translate(-88.7109375, -12)"><rect></rect><foreignObject width="177.421875" height="24"><div xmlns="http://www.w3.org/1999/xhtml" style="display: table-cell; white-space: nowrap; line-height: 1.5; max-width: 200px; text-align: center;"><span class="nodeLabel"><p>Task: PROOF_SUBMITTED</p></span></div></foreignObject></g></g><g class="node default" id="flowchart-S4-13" transform="translate(1981.796875, 241)"><rect class="basic label-container" style="" x="-76.890625" y="-27" width="153.78125" height="54"></rect><g class="label" style="" transform="translate(-46.890625, -12)"><rect></rect><foreignObject width="93.78125" height="24"><div xmlns="http://www.w3.org/1999/xhtml" style="display: table-cell; white-space: nowrap; line-height: 1.5; max-width: 200px; text-align: center;"><span class="nodeLabel"><p>Task: RETAKE</p></span></div></foreignObject></g></g><g class="node default" id="flowchart-S5-14" transform="translate(1764.9296875, 199)"><rect class="basic label-container" style="" x="-88.0546875" y="-27" width="176.109375" height="54"></rect><g class="label" style="" transform="translate(-58.0546875, -12)"><rect></rect><foreignObject width="116.109375" height="24"><div xmlns="http://www.w3.org/1999/xhtml" style="display: table-cell; white-space: nowrap; line-height: 1.5; max-width: 200px; text-align: center;"><span class="nodeLabel"><p>Task: COMPLETE</p></span></div></foreignObject></g></g><g class="node default" id="flowchart-P1-6" transform="translate(2953.625, 264.5)"><rect class="basic label-container" style="" x="-97.296875" y="-27" width="194.59375" height="54"></rect><g class="label" style="" transform="translate(-67.296875, -12)"><rect></rect><foreignObject width="134.59375" height="24"><div xmlns="http://www.w3.org/1999/xhtml" style="display: table-cell; white-space: nowrap; line-height: 1.5; max-width: 200px; text-align: center;"><span class="nodeLabel"><p>Order: GENERATED</p></span></div></foreignObject></g></g><g class="node default" id="flowchart-P2-7" transform="translate(3179.1953125, 273.5)"><rect class="basic label-container" style="" x="-98.2734375" y="-27" width="196.546875" height="54"></rect><g class="label" style="" transform="translate(-68.2734375, -12)"><rect></rect><foreignObject width="136.546875" height="24"><div xmlns="http://www.w3.org/1999/xhtml" style="display: table-cell; white-space: nowrap; line-height: 1.5; max-width: 200px; text-align: center;"><span class="nodeLabel"><p>Shipment: SHIPPED</p></span></div></foreignObject></g></g><g class="node default" id="flowchart-P3-8" transform="translate(3414.625, 273.5)"><rect class="basic label-container" style="" x="-107.15625" y="-27" width="214.3125" height="54"></rect><g class="label" style="" transform="translate(-77.15625, -12)"><rect></rect><foreignObject width="154.3125" height="24"><div xmlns="http://www.w3.org/1999/xhtml" style="display: table-cell; white-space: nowrap; line-height: 1.5; max-width: 200px; text-align: center;"><span class="nodeLabel"><p>Shipment: DELIVERED</p></span></div></foreignObject></g></g><g class="node default" id="flowchart-P4-9" transform="translate(2731.4453125, 334)"><rect class="basic label-container" style="" x="-94.8828125" y="-27" width="189.765625" height="54"></rect><g class="label" style="" transform="translate(-64.8828125, -12)"><rect></rect><foreignObject width="129.765625" height="24"><div xmlns="http://www.w3.org/1999/xhtml" style="display: table-cell; white-space: nowrap; line-height: 1.5; max-width: 200px; text-align: center;"><span class="nodeLabel"><p>Reorder: CREATED</p></span></div></foreignObject></g></g><g class="node default" id="flowchart-B0-0" transform="translate(1036.125, 133)"><rect class="basic label-container" style="" x="-109.03125" y="-27" width="218.0625" height="54"></rect><g class="label" style="" transform="translate(-79.03125, -12)"><rect></rect><foreignObject width="158.0625" height="24"><div xmlns="http://www.w3.org/1999/xhtml" style="display: table-cell; white-space: nowrap; line-height: 1.5; max-width: 200px; text-align: center;"><span class="nodeLabel"><p>Campaign: PUBLISHED</p></span></div></foreignObject></g></g><g class="node default" id="flowchart-B1-1" transform="translate(1303.609375, 142)"><rect class="basic label-container" style="" x="-128.453125" y="-27" width="256.90625" height="54"></rect><g class="label" style="" transform="translate(-98.453125, -12)"><rect></rect><foreignObject width="196.90625" height="24"><div xmlns="http://www.w3.org/1999/xhtml" style="display: table-cell; white-space: nowrap; line-height: 1.5; max-width: 200px; text-align: center;"><span class="nodeLabel"><p>StoreAssignment: ASSIGNED</p></span></div></foreignObject></g></g><g class="node default" id="flowchart-B2-2" transform="translate(179, 120)"><rect class="basic label-container" style="" x="-130" y="-39" width="260" height="78"></rect><g class="label" style="" transform="translate(-100, -24)"><rect></rect><foreignObject width="200" height="48"><div xmlns="http://www.w3.org/1999/xhtml" style="display: table; white-space: break-spaces; line-height: 1.5; max-width: 200px; text-align: center; width: 200px;"><span class="nodeLabel"><p>StoreAssignment: IN_PROGRESS</p></span></div></foreignObject></g></g><g class="node default" id="flowchart-B3-3" transform="translate(179, 228)"><rect class="basic label-container" style="" x="-130" y="-39" width="260" height="78"></rect><g class="label" style="" transform="translate(-100, -24)"><rect></rect><foreignObject width="200" height="48"><div xmlns="http://www.w3.org/1999/xhtml" style="display: table; white-space: break-spaces; line-height: 1.5; max-width: 200px; text-align: center; width: 200px;"><span class="nodeLabel"><p>StoreAssignment: SUBMITTED_FOR_REVIEW</p></span></div></foreignObject></g></g><g class="node default" id="flowchart-B4-4" transform="translate(622.109375, 241)"><rect class="basic label-container" style="" x="-130" y="-39" width="260" height="78"></rect><g class="label" style="" transform="translate(-100, -24)"><rect></rect><foreignObject width="200" height="48"><div xmlns="http://www.w3.org/1999/xhtml" style="display: table; white-space: break-spaces; line-height: 1.5; max-width: 200px; text-align: center; width: 200px;"><span class="nodeLabel"><p>StoreAssignment: REWORK_REQUESTED</p></span></div></foreignObject></g></g><g class="node default" id="flowchart-B5-5" transform="translate(622.109375, 133)"><rect class="basic label-container" style="" x="-130" y="-39" width="260" height="78"></rect><g class="label" style="" transform="translate(-100, -24)"><rect></rect><foreignObject width="200" height="48"><div xmlns="http://www.w3.org/1999/xhtml" style="display: table; white-space: break-spaces; line-height: 1.5; max-width: 200px; text-align: center; width: 200px;"><span class="nodeLabel"><p>StoreAssignment: COMPLETE</p></span></div></foreignObject></g></g></g><g class="edges edgePaths"><path d="M1145.156,142L1171.156,142" id="L_B0_B1_0_0" class="edge-thickness-normal edge-pattern-solid edge-thickness-normal edge-pattern-solid flowchart-link" style=";" data-edge="true" data-et="edge" data-id="L_B0_B1_0_0" data-points="W3sieCI6MTE0NS4xNTYyNSwieSI6MTQyfSx7IngiOjExNzUuMTU2MjUsInkiOjE0Mn1d" marker-end="url(#graph-273_flowchart-elk-pointEnd)"></path><path d="M1145.156,124L1146.823,124C1148.49,124,1151.823,124,1153.961,123.638C1156.099,123.276,1157.042,122.552,1157.875,121.719C1158.709,120.886,1159.432,119.943,1159.794,116.971C1160.156,114,1160.156,109,1160.518,106.029C1160.88,103.057,1161.604,102.114,1162.437,101.281C1163.271,100.448,1164.213,99.724,1212.419,99.362C1260.625,99,1356.094,99,1405.911,99C1455.729,99,1459.896,99,1462.451,98.638C1465.005,98.276,1465.948,97.552,1466.781,96.719C1467.615,95.886,1468.339,94.943,1468.701,93.888C1469.063,92.833,1469.063,91.667,1469.424,90.612C1469.786,89.557,1470.51,88.614,1471.344,87.781C1472.177,86.948,1473.12,86.224,1485.286,85.862C1497.453,85.5,1520.844,85.5,1688.844,85.5C1856.844,85.5,2169.453,85.5,2344.508,85.5C2519.563,85.5,2557.063,85.5,2576.284,85.862C2595.505,86.224,2596.448,86.948,2597.281,87.781C2598.115,88.614,2598.839,89.557,2599.201,118.195C2599.563,146.833,2599.563,203.167,2599.924,231.805C2600.286,260.443,2601.01,261.386,2601.844,262.219C2602.677,263.052,2603.62,263.776,2606.174,264.138C2608.729,264.5,2612.896,264.5,2654.19,264.5C2695.484,264.5,2773.906,264.5,2813.117,264.5L2852.328,264.5" id="L_B0_P1_0_0" class="edge-thickness-normal edge-pattern-solid edge-thickness-normal edge-pattern-solid flowchart-link" style=";" data-edge="true" data-et="edge" data-id="L_B0_P1_0_0" data-points="W3sieCI6MTE0NS4xNTYyNSwieSI6MTI0fSx7IngiOjExNjAuMTU2MjUsInkiOjEyNH0seyJ4IjoxMTYwLjE1NjI1LCJ5Ijo5OX0seyJ4IjoxNDUxLjU2MjUsInkiOjk5fSx7IngiOjE0NjkuMDYyNSwieSI6OTl9LHsieCI6MTQ2OS4wNjI1LCJ5Ijo4NS41fSx7IngiOjE1NDQuMjM0Mzc1LCJ5Ijo4NS41fSx7IngiOjI0ODIuMDYyNSwieSI6ODUuNX0seyJ4IjoyNTk5LjU2MjUsInkiOjg1LjV9LHsieCI6MjU5OS41NjI1LCJ5IjoyNjQuNX0seyJ4IjoyNjE3LjA2MjUsInkiOjI2NC41fSx7IngiOjI4NTYuMzI4MTI1LCJ5IjoyNjQuNX1d" marker-end="url(#graph-273_flowchart-elk-pointEnd)"></path><path d="M3050.922,264.5L3076.922,264.5" id="L_P1_P2_0_0" class="edge-thickness-normal edge-pattern-solid edge-thickness-normal edge-pattern-solid flowchart-link" style=";" data-edge="true" data-et="edge" data-id="L_P1_P2_0_0" data-points="W3sieCI6MzA1MC45MjE4NzUsInkiOjI2NC41fSx7IngiOjMwODAuOTIxODc1LCJ5IjoyNjQuNX1d" marker-end="url(#graph-273_flowchart-elk-pointEnd)"></path><path d="M3277.469,273.5L3303.469,273.5" id="L_P2_P3_0_0" class="edge-thickness-normal edge-pattern-solid edge-thickness-normal edge-pattern-solid flowchart-link" style=";" data-edge="true" data-et="edge" data-id="L_P2_P3_0_0" data-points="W3sieCI6MzI3Ny40Njg3NSwieSI6MjczLjV9LHsieCI6MzMwNy40Njg3NSwieSI6MjczLjV9XQ==" marker-end="url(#graph-273_flowchart-elk-pointEnd)"></path><path d="M3521.781,273.5L3525.031,273.5C3528.281,273.5,3534.781,273.5,3540.115,273.5C3545.448,273.5,3549.615,273.5,3552.169,273.862C3554.724,274.224,3555.667,274.948,3556.5,275.781C3557.334,276.614,3558.057,277.557,3558.419,295.862C3558.781,314.167,3558.781,349.833,3558.419,368.138C3558.057,386.443,3557.334,387.386,3556.5,388.219C3555.667,389.052,3554.724,389.776,3475.151,390.138C3395.578,390.5,3237.375,390.5,2977.076,390.5C2716.776,390.5,2354.38,390.5,2111.919,390.5C1869.458,390.5,1746.932,390.5,1685.198,390.138C1623.463,389.776,1622.521,389.052,1621.687,388.219C1620.854,387.386,1620.13,386.443,1619.768,376.721C1619.406,367,1619.406,348.5,1619.768,338.779C1620.13,329.057,1620.854,328.114,1621.687,327.281C1622.521,326.448,1623.463,325.724,1626.018,325.362C1628.573,325,1632.74,325,1637.406,325C1642.073,325,1647.24,325,1649.823,325L1652.406,325" id="L_P3_S1_0_0" class="edge-thickness-normal edge-pattern-solid edge-thickness-normal edge-pattern-solid flowchart-link" style=";" data-edge="true" data-et="edge" data-id="L_P3_S1_0_0" data-points="W3sieCI6MzUyMS43ODEyNSwieSI6MjczLjV9LHsieCI6MzU0MS4yODEyNSwieSI6MjczLjV9LHsieCI6MzU1OC43ODEyNSwieSI6MjczLjV9LHsieCI6MzU1OC43ODEyNSwieSI6MzkwLjV9LHsieCI6MzA3OS4xNzE4NzUsInkiOjM5MC41fSx7IngiOjE5OTEuOTg0Mzc1LCJ5IjozOTAuNX0seyJ4IjoxNjE5LjQwNjI1LCJ5IjozOTAuNX0seyJ4IjoxNjE5LjQwNjI1LCJ5IjozMjV9LHsieCI6MTYzNi45MDYyNSwieSI6MzI1fSx7IngiOjE2NTYuNDA2MjUsInkiOjMyNX1d" marker-end="url(#graph-273_flowchart-elk-pointEnd)"></path><path d="M1873.453,325L1899.453,325" id="L_S1_S2_0_0" class="edge-thickness-normal edge-pattern-solid edge-thickness-normal edge-pattern-solid flowchart-link" style=";" data-edge="true" data-et="edge" data-id="L_S1_S2_0_0" data-points="W3sieCI6MTg3My40NTMxMjUsInkiOjMyNX0seyJ4IjoxOTAzLjQ1MzEyNSwieSI6MzI1fV0=" marker-end="url(#graph-273_flowchart-elk-pointEnd)"></path><path d="M2060.141,316L2061.807,316C2063.474,316,2066.807,316,2068.945,315.638C2071.083,315.276,2072.026,314.552,2072.86,313.719C2073.693,312.886,2074.417,311.943,2074.779,303.638C2075.141,295.333,2075.141,279.667,2075.503,271.362C2075.864,263.057,2076.588,262.114,2077.422,261.281C2078.255,260.448,2079.198,259.724,2080.669,259.362C2082.141,259,2084.141,259,2085.141,259L2086.141,259" id="L_S2_S3_0_0" class="edge-thickness-normal edge-pattern-solid edge-thickness-normal edge-pattern-solid flowchart-link" style=";" data-edge="true" data-et="edge" data-id="L_S2_S3_0_0" data-points="W3sieCI6MjA2MC4xNDA2MjUsInkiOjMxNn0seyJ4IjoyMDc1LjE0MDYyNSwieSI6MzE2fSx7IngiOjIwNzUuMTQwNjI1LCJ5IjoyNTl9LHsieCI6MjA5MC4xNDA2MjUsInkiOjI1OX1d" marker-end="url(#graph-273_flowchart-elk-pointEnd)"></path><path d="M2327.563,250L2330.813,250C2334.063,250,2340.563,250,2345.896,250C2351.229,250,2355.396,250,2357.951,249.638C2360.505,249.276,2361.448,248.552,2362.281,247.719C2363.115,246.886,2363.839,245.943,2364.201,209.555C2364.563,173.167,2364.563,101.333,2364.201,64.945C2363.839,28.557,2363.115,27.614,2362.281,26.781C2361.448,25.948,2360.505,25.224,2298.771,24.862C2237.036,24.5,2114.51,24.5,1844.672,24.5C1574.833,24.5,1157.682,24.5,828.518,24.5C499.354,24.5,258.177,24.5,137.117,24.862C16.057,25.224,15.114,25.948,14.281,26.781C13.448,27.614,12.724,28.557,12.362,61.279C12,94,12,158.5,12.362,191.221C12.724,223.943,13.448,224.886,14.281,225.719C15.114,226.552,16.057,227.276,18.612,227.638C21.167,228,25.333,228,30,228C34.667,228,39.833,228,42.417,228L45,228" id="L_S3_B3_0_0" class="edge-thickness-normal edge-pattern-solid edge-thickness-normal edge-pattern-solid flowchart-link" style=";" data-edge="true" data-et="edge" data-id="L_S3_B3_0_0" data-points="W3sieCI6MjMyNy41NjI1LCJ5IjoyNTB9LHsieCI6MjM0Ny4wNjI1LCJ5IjoyNTB9LHsieCI6MjM2NC41NjI1LCJ5IjoyNTB9LHsieCI6MjM2NC41NjI1LCJ5IjoyNC41fSx7IngiOjE5OTEuOTg0Mzc1LCJ5IjoyNC41fSx7IngiOjc0MC41MzEyNSwieSI6MjQuNX0seyJ4IjoxMiwieSI6MjQuNX0seyJ4IjoxMiwieSI6MjI4fSx7IngiOjI5LjUsInkiOjIyOH0seyJ4Ijo0OSwieSI6MjI4fV0=" marker-end="url(#graph-273_flowchart-elk-pointEnd)"></path><path d="M309,215L310.667,215C312.333,215,315.667,215,317.805,214.638C319.943,214.276,320.886,213.552,321.719,212.719C322.552,211.886,323.276,210.943,323.638,198.471C324,186,324,162,324.362,149.529C324.724,137.057,325.448,136.114,326.281,135.281C327.114,134.448,328.057,133.724,355.047,133.362C382.036,133,435.073,133,461.591,133L488.109,133" id="L_B3_B5_0_0" class="edge-thickness-normal edge-pattern-solid edge-thickness-normal edge-pattern-solid flowchart-link" style=";" data-edge="true" data-et="edge" data-id="L_B3_B5_0_0" data-points="W3sieCI6MzA5LCJ5IjoyMTV9LHsieCI6MzI0LCJ5IjoyMTV9LHsieCI6MzI0LCJ5IjoxMzN9LHsieCI6NDkyLjEwOTM3NSwieSI6MTMzfV0=" marker-end="url(#graph-273_flowchart-elk-pointEnd)"></path><path d="M309,241L488.109,241" id="L_B3_B4_0_0" class="edge-thickness-normal edge-pattern-solid edge-thickness-normal edge-pattern-solid flowchart-link" style=";" data-edge="true" data-et="edge" data-id="L_B3_B4_0_0" data-points="W3sieCI6MzA5LCJ5IjoyNDF9LHsieCI6NDkyLjEwOTM3NSwieSI6MjQxfV0=" marker-end="url(#graph-273_flowchart-elk-pointEnd)"></path><path d="M752.109,241L868.685,241C985.26,241,1218.411,241,1350.432,241C1482.453,241,1513.344,241,1544.234,241C1575.125,241,1606.016,241,1665.461,241C1724.906,241,1812.906,241,1856.906,241L1900.906,241" id="L_B4_S4_0_0" class="edge-thickness-normal edge-pattern-solid edge-thickness-normal edge-pattern-solid flowchart-link" style=";" data-edge="true" data-et="edge" data-id="L_B4_S4_0_0" data-points="W3sieCI6NzUyLjEwOTM3NSwieSI6MjQxfSx7IngiOjE0NTEuNTYyNSwieSI6MjQxfSx7IngiOjE1NDQuMjM0Mzc1LCJ5IjoyNDF9LHsieCI6MTYzNi45MDYyNSwieSI6MjQxfSx7IngiOjE5MDQuOTA2MjUsInkiOjI0MX1d" marker-end="url(#graph-273_flowchart-elk-pointEnd)"></path><path d="M2058.688,241L2086.141,241" id="L_S4_S3_0_0" class="edge-thickness-normal edge-pattern-solid edge-thickness-normal edge-pattern-solid flowchart-link" style=";" data-edge="true" data-et="edge" data-id="L_S4_S3_0_0" data-points="W3sieCI6MjA1OC42ODc1LCJ5IjoyNDF9LHsieCI6MjA5MC4xNDA2MjUsInkiOjI0MX1d" marker-end="url(#graph-273_flowchart-elk-pointEnd)"></path><path d="M2060.141,334L2107.961,334C2155.781,334,2251.422,334,2344.242,334C2437.063,334,2527.063,334,2574.646,334C2622.229,334,2627.396,334,2629.979,334L2632.563,334" id="L_S2_P4_0_0" class="edge-thickness-normal edge-pattern-solid edge-thickness-normal edge-pattern-solid flowchart-link" style=";" data-edge="true" data-et="edge" data-id="L_S2_P4_0_0" data-points="W3sieCI6MjA2MC4xNDA2MjUsInkiOjMzNH0seyJ4IjoyMzQ3LjA2MjUsInkiOjMzNH0seyJ4IjoyNjE3LjA2MjUsInkiOjMzNH0seyJ4IjoyNjM2LjU2MjUsInkiOjMzNH1d" marker-end="url(#graph-273_flowchart-elk-pointEnd)"></path><path d="M2826.328,334L2865.427,334C2904.526,334,2982.724,334,3022.294,333.638C3061.865,333.276,3062.807,332.552,3063.641,331.719C3064.474,330.886,3065.198,329.943,3065.56,322.555C3065.922,315.167,3065.922,301.333,3066.284,293.945C3066.646,286.557,3067.37,285.614,3068.203,284.781C3069.036,283.948,3069.979,283.224,3071.45,282.862C3072.922,282.5,3074.922,282.5,3075.922,282.5L3076.922,282.5" id="L_P4_P2_0_0" class="edge-thickness-normal edge-pattern-solid edge-thickness-normal edge-pattern-solid flowchart-link" style=";" data-edge="true" data-et="edge" data-id="L_P4_P2_0_0" data-points="W3sieCI6MjgyNi4zMjgxMjUsInkiOjMzNH0seyJ4IjozMDY1LjkyMTg3NSwieSI6MzM0fSx7IngiOjMwNjUuOTIxODc1LCJ5IjoyODIuNX0seyJ4IjozMDgwLjkyMTg3NSwieSI6MjgyLjV9XQ==" marker-end="url(#graph-273_flowchart-elk-pointEnd)"></path><path d="M752.109,133L923.094,133" id="L_B5_B0_0_0" class="edge-thickness-normal edge-pattern-solid edge-thickness-normal edge-pattern-solid flowchart-link" style=";" data-edge="true" data-et="edge" data-id="L_B5_B0_0_0" data-points="W3sieCI6NzUyLjEwOTM3NSwieSI6MTMzfSx7IngiOjkyNy4wOTM3NSwieSI6MTMzfV0=" marker-end="url(#graph-273_flowchart-elk-pointEnd)"></path></g><g class="edgeLabels"><g class="edgeLabel"><g class="label" data-id="L_B0_B1_0_0" transform="translate(0, 0)"><foreignObject width="0" height="0"><div xmlns="http://www.w3.org/1999/xhtml" class="labelBkg" style="display: table-cell; white-space: nowrap; line-height: 1.5; max-width: 200px; text-align: center;"><span class="edgeLabel"></span></div></foreignObject></g></g><g class="edgeLabel" transform="translate(1991.984375, 85)"><g class="label" data-id="L_B0_P1_0_0" transform="translate(-92.0625, -12)"><foreignObject width="184.125" height="24"><div xmlns="http://www.w3.org/1999/xhtml" class="labelBkg" style="display: table-cell; white-space: nowrap; line-height: 1.5; max-width: 200px; text-align: center;"><span class="edgeLabel"><p>publish → generate order</p></span></div></foreignObject></g></g><g class="edgeLabel"><g class="label" data-id="L_P1_P2_0_0" transform="translate(0, 0)"><foreignObject width="0" height="0"><div xmlns="http://www.w3.org/1999/xhtml" class="labelBkg" style="display: table-cell; white-space: nowrap; line-height: 1.5; max-width: 200px; text-align: center;"><span class="edgeLabel"></span></div></foreignObject></g></g><g class="edgeLabel"><g class="label" data-id="L_P2_P3_0_0" transform="translate(0, 0)"><foreignObject width="0" height="0"><div xmlns="http://www.w3.org/1999/xhtml" class="labelBkg" style="display: table-cell; white-space: nowrap; line-height: 1.5; max-width: 200px; text-align: center;"><span class="edgeLabel"></span></div></foreignObject></g></g><g class="edgeLabel" transform="translate(2482.0625, 390)"><g class="label" data-id="L_P3_S1_0_0" transform="translate(-100, -24)"><foreignObject width="200" height="48"><div xmlns="http://www.w3.org/1999/xhtml" class="labelBkg" style="display: table; white-space: break-spaces; line-height: 1.5; max-width: 200px; text-align: center; width: 200px;"><span class="edgeLabel"><p>delivered → ready to execute</p></span></div></foreignObject></g></g><g class="edgeLabel"><g class="label" data-id="L_S1_S2_0_0" transform="translate(0, 0)"><foreignObject width="0" height="0"><div xmlns="http://www.w3.org/1999/xhtml" class="labelBkg" style="display: table-cell; white-space: nowrap; line-height: 1.5; max-width: 200px; text-align: center;"><span class="edgeLabel"></span></div></foreignObject></g></g><g class="edgeLabel"><g class="label" data-id="L_S2_S3_0_0" transform="translate(0, 0)"><foreignObject width="0" height="0"><div xmlns="http://www.w3.org/1999/xhtml" class="labelBkg" style="display: table-cell; white-space: nowrap; line-height: 1.5; max-width: 200px; text-align: center;"><span class="edgeLabel"></span></div></foreignObject></g></g><g class="edgeLabel" transform="translate(1544.234375, 24)"><g class="label" data-id="L_S3_B3_0_0" transform="translate(-57.671875, -12)"><foreignObject width="115.34375" height="24"><div xmlns="http://www.w3.org/1999/xhtml" class="labelBkg" style="display: table-cell; white-space: nowrap; line-height: 1.5; max-width: 200px; text-align: center;"><span class="edgeLabel"><p>proof submitted</p></span></div></foreignObject></g></g><g class="edgeLabel" transform="translate(400.5546875, 132.5)"><g class="label" data-id="L_B3_B5_0_0" transform="translate(-33.2578125, -12)"><foreignObject width="66.515625" height="24"><div xmlns="http://www.w3.org/1999/xhtml" class="labelBkg" style="display: table-cell; white-space: nowrap; line-height: 1.5; max-width: 200px; text-align: center;"><span class="edgeLabel"><p>approved</p></span></div></foreignObject></g></g><g class="edgeLabel" transform="translate(400.5546875, 240.5)"><g class="label" data-id="L_B3_B4_0_0" transform="translate(-61.5546875, -12)"><foreignObject width="123.109375" height="24"><div xmlns="http://www.w3.org/1999/xhtml" class="labelBkg" style="display: table-cell; white-space: nowrap; line-height: 1.5; max-width: 200px; text-align: center;"><span class="edgeLabel"><p>retake requested</p></span></div></foreignObject></g></g><g class="edgeLabel"><g class="label" data-id="L_B4_S4_0_0" transform="translate(0, 0)"><foreignObject width="0" height="0"><div xmlns="http://www.w3.org/1999/xhtml" class="labelBkg" style="display: table-cell; white-space: nowrap; line-height: 1.5; max-width: 200px; text-align: center;"><span class="edgeLabel"></span></div></foreignObject></g></g><g class="edgeLabel"><g class="label" data-id="L_S4_S3_0_0" transform="translate(0, 0)"><foreignObject width="0" height="0"><div xmlns="http://www.w3.org/1999/xhtml" class="labelBkg" style="display: table-cell; white-space: nowrap; line-height: 1.5; max-width: 200px; text-align: center;"><span class="edgeLabel"></span></div></foreignObject></g></g><g class="edgeLabel" transform="translate(2482.0625, 333.5)"><g class="label" data-id="L_S2_P4_0_0" transform="translate(-91.6171875, -12)"><foreignObject width="183.234375" height="24"><div xmlns="http://www.w3.org/1999/xhtml" class="labelBkg" style="display: table-cell; white-space: nowrap; line-height: 1.5; max-width: 200px; text-align: center;"><span class="edgeLabel"><p>issue / reorder requested</p></span></div></foreignObject></g></g><g class="edgeLabel" transform="translate(2953.625, 333.5)"><g class="label" data-id="L_P4_P2_0_0" transform="translate(-75.3984375, -12)"><foreignObject width="150.796875" height="24"><div xmlns="http://www.w3.org/1999/xhtml" class="labelBkg" style="display: table-cell; white-space: nowrap; line-height: 1.5; max-width: 200px; text-align: center;"><span class="edgeLabel"><p>replacement shipped</p></span></div></foreignObject></g></g><g class="edgeLabel" transform="translate(839.6015625, 132.5)"><g class="label" data-id="L_B5_B0_0_0" transform="translate(-57.4921875, -12)"><foreignObject width="114.984375" height="24"><div xmlns="http://www.w3.org/1999/xhtml" class="labelBkg" style="display: table-cell; white-space: nowrap; line-height: 1.5; max-width: 200px; text-align: center;"><span class="edgeLabel"><p>campaign rollup</p></span></div></foreignObject></g></g></g></g></svg>