<?xml version="1.0" encoding="UTF-8"?>
<?xml-stylesheet href="https://cdnjs.cloudflare.com/ajax/libs/font-awesome/6.7.2/css/all.min.css" type="text/css"?>
<svg id="graph-525" width="100%" xmlns="http://www.w3.org/2000/svg" class="flowchart" style="overflow: hidden; max-width: 100%; touch-action: none; user-select: none; -webkit-user-drag: none; -webkit-tap-highlight-color: rgba(0, 0, 0, 0); background-color: rgb(255, 255, 255);" role="graphics-document document" aria-roledescription="flowchart-elk" height="100%" xmlns:xlink="http://www.w3.org/1999/xlink" xmlns:ev="http://www.w3.org/2001/xml-events"><g id="viewport-20251218184902415" class="svg-pan-zoom_viewport" transform="matrix(0.8457258197285707,0,0,0.8457258197285707,65.75009649393309,134.9459061226651)" style="transform: matrix(0.845726, 0, 0, 0.845726, 65.7501, 134.946);"><style>#graph-525{font-family:"trebuchet ms",verdana,arial,sans-serif;font-size:16px;fill:#333;}@keyframes edge-animation-frame{from{stroke-dashoffset:0;}}@keyframes dash{to{stroke-dashoffset:0;}}#graph-525 .edge-animation-slow{stroke-dasharray:9,5!important;stroke-dashoffset:900;animation:dash 50s linear infinite;stroke-linecap:round;}#graph-525 .edge-animation-fast{stroke-dasharray:9,5!important;stroke-dashoffset:900;animation:dash 20s linear infinite;stroke-linecap:round;}#graph-525 .error-icon{fill:#552222;}#graph-525 .error-text{fill:#552222;stroke:#552222;}#graph-525 .edge-thickness-normal{stroke-width:1px;}#graph-525 .edge-thickness-thick{stroke-width:3.5px;}#graph-525 .edge-pattern-solid{stroke-dasharray:0;}#graph-525 .edge-thickness-invisible{stroke-width:0;fill:none;}#graph-525 .edge-pattern-dashed{stroke-dasharray:3;}#graph-525 .edge-pattern-dotted{stroke-dasharray:2;}#graph-525 .marker{fill:#333333;stroke:#333333;}#graph-525 .marker.cross{stroke:#333333;}#graph-525 svg{font-family:"trebuchet ms",verdana,arial,sans-serif;font-size:16px;}#graph-525 p{margin:0;}#graph-525 .label{font-family:"trebuchet ms",verdana,arial,sans-serif;color:#333;}#graph-525 .cluster-label text{fill:#333;}#graph-525 .cluster-label span{color:#333;}#graph-525 .cluster-label span p{background-color:transparent;}#graph-525 .label text,#graph-525 span{fill:#333;color:#333;}#graph-525 .node rect,#graph-525 .node circle,#graph-525 .node ellipse,#graph-525 .node polygon,#graph-525 .node path{fill:#ECECFF;stroke:#9370DB;stroke-width:1px;}#graph-525 .rough-node .label text,#graph-525 .node .label text,#graph-525 .image-shape .label,#graph-525 .icon-shape .label{text-anchor:middle;}#graph-525 .node .katex path{fill:#000;stroke:#000;stroke-width:1px;}#graph-525 .rough-node .label,#graph-525 .node .label,#graph-525 .image-shape .label,#graph-525 .icon-shape .label{text-align:center;}#graph-525 .node.clickable{cursor:pointer;}#graph-525 .root .anchor path{fill:#333333!important;stroke-width:0;stroke:#333333;}#graph-525 .arrowheadPath{fill:#333333;}#graph-525 .edgePath .path{stroke:#333333;stroke-width:2.0px;}#graph-525 .flowchart-link{stroke:#333333;fill:none;}#graph-525 .edgeLabel{background-color:rgba(232,232,232, 0.8);text-align:center;}#graph-525 .edgeLabel p{background-color:rgba(232,232,232, 0.8);}#graph-525 .edgeLabel rect{opacity:0.5;background-color:rgba(232,232,232, 0.8);fill:rgba(232,232,232, 0.8);}#graph-525 .labelBkg{background-color:rgba(232, 232, 232, 0.5);}#graph-525 .cluster rect{fill:#ffffde;stroke:#aaaa33;stroke-width:1px;}#graph-525 .cluster text{fill:#333;}#graph-525 .cluster span{color:#333;}#graph-525 div.mermaidTooltip{position:absolute;text-align:center;max-width:200px;padding:2px;font-family:"trebuchet ms",verdana,arial,sans-serif;font-size:12px;background:hsl(80, 100%, 96.2745098039%);border:1px solid #aaaa33;border-radius:2px;pointer-events:none;z-index:100;}#graph-525 .flowchartTitleText{text-anchor:middle;font-size:18px;fill:#333;}#graph-525 rect.text{fill:none;stroke-width:0;}#graph-525 .icon-shape,#graph-525 .image-shape{background-color:rgba(232,232,232, 0.8);text-align:center;}#graph-525 .icon-shape p,#graph-525 .image-shape p{background-color:rgba(232,232,232, 0.8);padding:2px;}#graph-525 .icon-shape rect,#graph-525 .image-shape rect{opacity:0.5;background-color:rgba(232,232,232, 0.8);fill:rgba(232,232,232, 0.8);}#graph-525 .label-icon{display:inline-block;height:1em;overflow:visible;vertical-align:-0.125em;}#graph-525 .node .label-icon path{fill:currentColor;stroke:revert;stroke-width:revert;}#graph-525 :root{--mermaid-font-family:"trebuchet ms",verdana,arial,sans-serif;}</style><g><marker id="graph-525_flowchart-elk-pointEnd" class="marker flowchart-elk" viewBox="0 0 10 10" refX="5" refY="5" markerUnits="userSpaceOnUse" markerWidth="8" markerHeight="8" orient="auto"><path d="M 0 0 L 10 5 L 0 10 z" class="arrowMarkerPath" style="stroke-width: 1; stroke-dasharray: 1, 0;"></path></marker><marker id="graph-525_flowchart-elk-pointStart" class="marker flowchart-elk" viewBox="0 0 10 10" refX="4.5" refY="5" markerUnits="userSpaceOnUse" markerWidth="8" markerHeight="8" orient="auto"><path d="M 0 5 L 10 10 L 10 0 z" class="arrowMarkerPath" style="stroke-width: 1; stroke-dasharray: 1, 0;"></path></marker><marker id="graph-525_flowchart-elk-circleEnd" class="marker flowchart-elk" viewBox="0 0 10 10" refX="11" refY="5" markerUnits="userSpaceOnUse" markerWidth="11" markerHeight="11" orient="auto"><circle cx="5" cy="5" r="5" class="arrowMarkerPath" style="stroke-width: 1; stroke-dasharray: 1, 0;"></circle></marker><marker id="graph-525_flowchart-elk-circleStart" class="marker flowchart-elk" viewBox="0 0 10 10" refX="-1" refY="5" markerUnits="userSpaceOnUse" markerWidth="11" markerHeight="11" orient="auto"><circle cx="5" cy="5" r="5" class="arrowMarkerPath" style="stroke-width: 1; stroke-dasharray: 1, 0;"></circle></marker><marker id="graph-525_flowchart-elk-crossEnd" class="marker cross flowchart-elk" viewBox="0 0 11 11" refX="12" refY="5.2" markerUnits="userSpaceOnUse" markerWidth="11" markerHeight="11" orient="auto"><path d="M 1,1 l 9,9 M 10,1 l -9,9" class="arrowMarkerPath" style="stroke-width: 2; stroke-dasharray: 1, 0;"></path></marker><marker id="graph-525_flowchart-elk-crossStart" class="marker cross flowchart-elk" viewBox="0 0 11 11" refX="-1" refY="5.2" markerUnits="userSpaceOnUse" markerWidth="11" markerHeight="11" orient="auto"><path d="M 1,1 l 9,9 M 10,1 l -9,9" class="arrowMarkerPath" style="stroke-width: 2; stroke-dasharray: 1, 0;"></path></marker></g><g class="subgraphs"><g class="subgraph"><g class="cluster" id="STORE" data-look="classic"><rect style="" x="48" y="650.5" width="493.125" height="273"></rect><g class="cluster-label" transform="translate(260.171875, 650.5)"><foreignObject width="68.78125" height="24"><div xmlns="http://www.w3.org/1999/xhtml" style="display: table-cell; white-space: nowrap; line-height: 1.5; max-width: 200px; text-align: center;"><span class="nodeLabel"><p>Store App</p></span></div></foreignObject></g></g></g><g class="subgraph"><g class="cluster" id="PSP" data-look="classic"><rect style="" x="617.2239583333334" y="317.5" width="514.1015625" height="189"></rect><g class="cluster-label" transform="translate(838.0169270833334, 317.5)"><foreignObject width="72.515625" height="24"><div xmlns="http://www.w3.org/1999/xhtml" style="display: table-cell; white-space: nowrap; line-height: 1.5; max-width: 200px; text-align: center;"><span class="nodeLabel"><p>PSP Portal</p></span></div></foreignObject></g></g></g><g class="subgraph"><g class="cluster" id="BRAND" data-look="classic"><rect style="" x="48" y="54.5" width="860.875" height="213"></rect><g class="cluster-label" transform="translate(434.1328125, 54.5)"><foreignObject width="88.609375" height="24"><div xmlns="http://www.w3.org/1999/xhtml" style="display: table-cell; white-space: nowrap; line-height: 1.5; max-width: 200px; text-align: center;"><span class="nodeLabel"><p>Brand Portal</p></span></div></foreignObject></g></g></g></g><g class="nodes"><g class="node default" id="flowchart-S1-7" transform="translate(446.7734375, 716.5)"><rect class="basic label-container" style="" x="-82.3515625" y="-27" width="164.703125" height="54"></rect><g class="label" style="" transform="translate(-52.3515625, -12)"><rect></rect><foreignObject width="104.703125" height="24"><div xmlns="http://www.w3.org/1999/xhtml" style="display: table-cell; white-space: nowrap; line-height: 1.5; max-width: 200px; text-align: center;"><span class="nodeLabel"><p>Receive/verify</p></span></div></foreignObject></g></g><g class="node default" id="flowchart-S2-8" transform="translate(446.7734375, 800.5)"><rect class="basic label-container" style="" x="-51.9296875" y="-27" width="103.859375" height="54"></rect><g class="label" style="" transform="translate(-21.9296875, -12)"><rect></rect><foreignObject width="43.859375" height="24"><div xmlns="http://www.w3.org/1999/xhtml" style="display: table-cell; white-space: nowrap; line-height: 1.5; max-width: 200px; text-align: center;"><span class="nodeLabel"><p>Install</p></span></div></foreignObject></g></g><g class="node default" id="flowchart-S3-9" transform="translate(321.6380208333333, 884.5)"><rect class="basic label-container" style="" x="-127.4453125" y="-27" width="254.890625" height="54"></rect><g class="label" style="" transform="translate(-97.4453125, -12)"><rect></rect><foreignObject width="194.890625" height="24"><div xmlns="http://www.w3.org/1999/xhtml" style="display: table-cell; white-space: nowrap; line-height: 1.5; max-width: 200px; text-align: center;"><span class="nodeLabel"><p>Proof capture + attestation</p></span></div></foreignObject></g></g><g class="node default" id="flowchart-S4-10" transform="translate(279.15625, 800.5)"><rect class="basic label-container" style="" x="-79.2265625" y="-27" width="158.453125" height="54"></rect><g class="label" style="" transform="translate(-49.2265625, -12)"><rect></rect><foreignObject width="98.453125" height="24"><div xmlns="http://www.w3.org/1999/xhtml" style="display: table-cell; white-space: nowrap; line-height: 1.5; max-width: 200px; text-align: center;"><span class="nodeLabel"><p>Retake proofs</p></span></div></foreignObject></g></g><g class="node default" id="flowchart-S5-11" transform="translate(162.078125, 716.5)"><rect class="basic label-container" style="" x="-102.078125" y="-27" width="204.15625" height="54"></rect><g class="label" style="" transform="translate(-72.078125, -12)"><rect></rect><foreignObject width="144.15625" height="24"><div xmlns="http://www.w3.org/1999/xhtml" style="display: table-cell; white-space: nowrap; line-height: 1.5; max-width: 200px; text-align: center;"><span class="nodeLabel"><p>Complete store task</p></span></div></foreignObject></g></g><g class="node default" id="flowchart-P1-4" transform="translate(740.8489583333334, 383.5)"><rect class="basic label-container" style="" x="-99.7890625" y="-27" width="199.578125" height="54"></rect><g class="label" style="" transform="translate(-69.7890625, -12)"><rect></rect><foreignObject width="139.578125" height="24"><div xmlns="http://www.w3.org/1999/xhtml" style="display: table-cell; white-space: nowrap; line-height: 1.5; max-width: 200px; text-align: center;"><span class="nodeLabel"><p>Create orders/lines</p></span></div></foreignObject></g></g><g class="node default" id="flowchart-P2-5" transform="translate(740.8489583333334, 467.5)"><rect class="basic label-container" style="" x="-111.625" y="-27" width="223.25" height="54"></rect><g class="label" style="" transform="translate(-81.625, -12)"><rect></rect><foreignObject width="163.25" height="24"><div xmlns="http://www.w3.org/1999/xhtml" style="display: table-cell; white-space: nowrap; line-height: 1.5; max-width: 200px; text-align: center;"><span class="nodeLabel"><p>Batch + produce + ship</p></span></div></foreignObject></g></g><g class="node default" id="flowchart-P3-6" transform="translate(994.9817708333334, 383.5)"><rect class="basic label-container" style="" x="-124.34375" y="-27" width="248.6875" height="54"></rect><g class="label" style="" transform="translate(-94.34375, -12)"><rect></rect><foreignObject width="188.6875" height="24"><div xmlns="http://www.w3.org/1999/xhtml" style="display: table-cell; white-space: nowrap; line-height: 1.5; max-width: 200px; text-align: center;"><span class="nodeLabel"><p>Reorder/replacement ship</p></span></div></foreignObject></g></g><g class="node default" id="flowchart-B1-0" transform="translate(766.875, 132.5)"><rect class="basic label-container" style="" x="-130" y="-39" width="260" height="78"></rect><g class="label" style="" transform="translate(-100, -24)"><rect></rect><foreignObject width="200" height="48"><div xmlns="http://www.w3.org/1999/xhtml" style="display: table; white-space: break-spaces; line-height: 1.5; max-width: 200px; text-align: center; width: 200px;"><span class="nodeLabel"><p>Draft campaign (kit + rules + stores)</p></span></div></foreignObject></g></g><g class="node default" id="flowchart-B2-1" transform="translate(766.875, 228.5)"><rect class="basic label-container" style="" x="-120.765625" y="-27" width="241.53125" height="54"></rect><g class="label" style="" transform="translate(-90.765625, -12)"><rect></rect><foreignObject width="181.53125" height="24"><div xmlns="http://www.w3.org/1999/xhtml" style="display: table-cell; white-space: nowrap; line-height: 1.5; max-width: 200px; text-align: center;"><span class="nodeLabel"><p>Publish (generate orders)</p></span></div></foreignObject></g></g><g class="node default" id="flowchart-B3-2" transform="translate(476.875, 132.5)"><rect class="basic label-container" style="" x="-130" y="-39" width="260" height="78"></rect><g class="label" style="" transform="translate(-100, -24)"><rect></rect><foreignObject width="200" height="48"><div xmlns="http://www.w3.org/1999/xhtml" style="display: table; white-space: break-spaces; line-height: 1.5; max-width: 200px; text-align: center; width: 200px;"><span class="nodeLabel"><p>Review proofs (approve/reject)</p></span></div></foreignObject></g></g><g class="node default" id="flowchart-B4-3" transform="translate(188.4375, 120.5)"><rect class="basic label-container" style="" x="-128.4375" y="-27" width="256.875" height="54"></rect><g class="label" style="" transform="translate(-98.4375, -12)"><rect></rect><foreignObject width="196.875" height="24"><div xmlns="http://www.w3.org/1999/xhtml" style="display: table-cell; white-space: nowrap; line-height: 1.5; max-width: 200px; text-align: center;"><span class="nodeLabel"><p>Rollups + reporting/exports</p></span></div></foreignObject></g></g></g><g class="edges edgePaths"><path d="M766.875,171.5L766.875,197.5" id="L_B1_B2_0_0" class="edge-thickness-normal edge-pattern-solid edge-thickness-normal edge-pattern-solid flowchart-link" style=";" data-edge="true" data-et="edge" data-id="L_B1_B2_0_0" data-points="W3sieCI6NzY2Ljg3NSwieSI6MTcxLjV9LHsieCI6NzY2Ljg3NSwieSI6MjAxLjV9XQ==" marker-end="url(#graph-525_flowchart-elk-pointEnd)"></path><path d="M766.875,255.5L766.875,258.75C766.875,262,766.875,268.5,766.875,273.833C766.875,279.167,766.875,283.333,766.513,285.888C766.151,288.443,765.427,289.386,764.594,290.219C763.761,291.052,762.818,291.776,759.675,292.138C756.533,292.5,751.191,292.5,748.049,292.862C744.906,293.224,743.963,293.948,743.13,294.781C742.297,295.614,741.573,296.557,741.211,299.112C740.849,301.667,740.849,305.833,740.849,315C740.849,324.167,740.849,338.333,740.849,345.417L740.849,352.5" id="L_B2_P1_0_0" class="edge-thickness-normal edge-pattern-solid edge-thickness-normal edge-pattern-solid flowchart-link" style=";" data-edge="true" data-et="edge" data-id="L_B2_P1_0_0" data-points="W3sieCI6NzY2Ljg3NSwieSI6MjU1LjV9LHsieCI6NzY2Ljg3NSwieSI6Mjc1fSx7IngiOjc2Ni44NzUsInkiOjI5Mi41fSx7IngiOjc0MC44NDg5NTgzMzMzMzM0LCJ5IjoyOTIuNX0seyJ4Ijo3NDAuODQ4OTU4MzMzMzMzNCwieSI6MzEwfSx7IngiOjc0MC44NDg5NTgzMzMzMzM0LCJ5IjozNTYuNX1d" marker-end="url(#graph-525_flowchart-elk-pointEnd)"></path><path d="M740.849,410.5L740.849,436.5" id="L_P1_P2_0_0" class="edge-thickness-normal edge-pattern-solid edge-thickness-normal edge-pattern-solid flowchart-link" style=";" data-edge="true" data-et="edge" data-id="L_P1_P2_0_0" data-points="W3sieCI6NzQwLjg0ODk1ODMzMzMzMzQsInkiOjQxMC41fSx7IngiOjc0MC44NDg5NTgzMzMzMzM0LCJ5Ijo0NDAuNX1d" marker-end="url(#graph-525_flowchart-elk-pointEnd)"></path><path d="M740.849,494.5L740.849,497.75C740.849,501,740.849,507.5,740.849,518.583C740.849,529.667,740.849,545.333,740.849,560.167C740.849,575,740.849,589,740.487,596.471C740.125,603.943,739.401,604.886,738.568,605.719C737.735,606.552,736.792,607.276,684.399,607.638C632.007,608,528.165,608,475.773,608.362C423.38,608.724,422.437,609.448,421.604,610.281C420.771,611.114,420.047,612.057,419.685,617.529C419.323,623,419.323,633,419.323,645.083C419.323,657.167,419.323,671.333,419.323,678.417L419.323,685.5" id="L_P2_S1_0_0" class="edge-thickness-normal edge-pattern-solid edge-thickness-normal edge-pattern-solid flowchart-link" style=";" data-edge="true" data-et="edge" data-id="L_P2_S1_0_0" data-points="W3sieCI6NzQwLjg0ODk1ODMzMzMzMzQsInkiOjQ5NC41fSx7IngiOjc0MC44NDg5NTgzMzMzMzM0LCJ5Ijo1MTR9LHsieCI6NzQwLjg0ODk1ODMzMzMzMzQsInkiOjU2MX0seyJ4Ijo3NDAuODQ4OTU4MzMzMzMzNCwieSI6NjA4fSx7IngiOjQxOS4zMjI5MTY2NjY2NjY3LCJ5Ijo2MDh9LHsieCI6NDE5LjMyMjkxNjY2NjY2NjcsInkiOjY0M30seyJ4Ijo0MTkuMzIyOTE2NjY2NjY2NywieSI6Njg5LjV9XQ==" marker-end="url(#graph-525_flowchart-elk-pointEnd)"></path><path d="M446.773,743.5L446.773,769.5" id="L_S1_S2_0_0" class="edge-thickness-normal edge-pattern-solid edge-thickness-normal edge-pattern-solid flowchart-link" style=";" data-edge="true" data-et="edge" data-id="L_S1_S2_0_0" data-points="W3sieCI6NDQ2Ljc3MzQzNzUsInkiOjc0My41fSx7IngiOjQ0Ni43NzM0Mzc1LCJ5Ijo3NzMuNX1d" marker-end="url(#graph-525_flowchart-elk-pointEnd)"></path><path d="M429.464,827.5L429.464,829.167C429.464,830.833,429.464,834.167,429.102,836.305C428.74,838.443,428.016,839.386,427.182,840.219C426.349,841.052,425.406,841.776,415.711,842.138C406.016,842.5,387.568,842.5,377.872,842.862C368.177,843.224,367.234,843.948,366.401,844.781C365.568,845.614,364.844,846.557,364.482,848.029C364.12,849.5,364.12,851.5,364.12,852.5L364.12,853.5" id="L_S2_S3_0_0" class="edge-thickness-normal edge-pattern-solid edge-thickness-normal edge-pattern-solid flowchart-link" style=";" data-edge="true" data-et="edge" data-id="L_S2_S3_0_0" data-points="W3sieCI6NDI5LjQ2MzU0MTY2NjY2NjcsInkiOjgyNy41fSx7IngiOjQyOS40NjM1NDE2NjY2NjY3LCJ5Ijo4NDIuNX0seyJ4IjozNjQuMTE5NzkxNjY2NjY2NjMsInkiOjg0Mi41fSx7IngiOjM2NC4xMTk3OTE2NjY2NjY2MywieSI6ODU3LjV9XQ==" marker-end="url(#graph-525_flowchart-elk-pointEnd)"></path><path d="M321.638,911.5L321.638,914.75C321.638,918,321.638,924.5,321.638,932.75C321.638,941,321.638,951,321.276,956.471C320.914,961.943,320.19,962.886,319.357,963.719C318.524,964.552,317.581,965.276,267.17,965.638C216.759,966,116.879,966,66.468,965.638C16.057,965.276,15.114,964.552,14.281,963.719C13.448,962.886,12.724,961.943,12.362,932.471C12,903,12,845,12,778.333C12,711.667,12,636.333,12,573.833C12,511.333,12,461.667,12,395C12,328.333,12,244.667,12,178.833C12,113,12,65,12.362,40.529C12.724,16.057,13.448,15.114,14.281,14.281C15.114,13.448,16.057,12.724,92.341,12.362C168.625,12,320.25,12,396.534,12.362C472.818,12.724,473.761,13.448,474.594,14.281C475.427,15.114,476.151,16.057,476.513,21.529C476.875,27,476.875,37,476.875,49.083C476.875,61.167,476.875,75.333,476.875,82.417L476.875,89.5" id="L_S3_B3_0_0" class="edge-thickness-normal edge-pattern-solid edge-thickness-normal edge-pattern-solid flowchart-link" style=";" data-edge="true" data-et="edge" data-id="L_S3_B3_0_0" data-points="W3sieCI6MzIxLjYzODAyMDgzMzMzMzMsInkiOjkxMS41fSx7IngiOjMyMS42MzgwMjA4MzMzMzMzLCJ5Ijo5MzF9LHsieCI6MzIxLjYzODAyMDgzMzMzMzMsInkiOjk2Nn0seyJ4IjoxMiwieSI6OTY2fSx7IngiOjEyLCJ5Ijo3ODd9LHsieCI6MTIsInkiOjU2MX0seyJ4IjoxMiwieSI6NDEyfSx7IngiOjEyLCJ5IjoxNjF9LHsieCI6MTIsInkiOjEyfSx7IngiOjQ3Ni44NzUsInkiOjEyfSx7IngiOjQ3Ni44NzUsInkiOjQ3fSx7IngiOjQ3Ni44NzUsInkiOjkzLjV9XQ==" marker-end="url(#graph-525_flowchart-elk-pointEnd)"></path><path d="M433.542,171.5L433.542,188.75C433.542,206,433.542,240.5,433.542,259.833C433.542,279.167,433.542,283.333,433.18,285.888C432.818,288.443,432.094,289.386,431.261,290.219C430.427,291.052,429.484,291.776,385.436,292.138C341.387,292.5,254.233,292.5,210.184,292.862C166.135,293.224,165.193,293.948,164.359,294.781C163.526,295.614,162.802,296.557,162.44,340.945C162.078,385.333,162.078,473.167,162.078,530.75C162.078,588.333,162.078,615.667,162.078,636.417C162.078,657.167,162.078,671.333,162.078,678.417L162.078,685.5" id="L_B3_S5_0_0" class="edge-thickness-normal edge-pattern-solid edge-thickness-normal edge-pattern-solid flowchart-link" style=";" data-edge="true" data-et="edge" data-id="L_B3_S5_0_0" data-points="W3sieCI6NDMzLjU0MTY2NjY2NjY2NjcsInkiOjE3MS41fSx7IngiOjQzMy41NDE2NjY2NjY2NjY3LCJ5IjoyNzV9LHsieCI6NDMzLjU0MTY2NjY2NjY2NjcsInkiOjI5Mi41fSx7IngiOjE2Mi4wNzgxMjUsInkiOjI5Mi41fSx7IngiOjE2Mi4wNzgxMjUsInkiOjU2MX0seyJ4IjoxNjIuMDc4MTI1LCJ5Ijo2NDN9LHsieCI6MTYyLjA3ODEyNSwieSI6Njg5LjV9XQ==" marker-end="url(#graph-525_flowchart-elk-pointEnd)"></path><path d="M162.078,743.5L162.078,774.75C162.078,806,162.078,868.5,162.078,901.833C162.078,935.167,162.078,939.333,161.716,941.888C161.354,944.443,160.63,945.386,159.797,946.219C158.964,947.052,158.021,947.776,137.287,948.138C116.552,948.5,76.026,948.5,55.292,948.138C34.557,947.776,33.614,947.052,32.781,946.219C31.948,945.386,31.224,944.443,30.862,917.888C30.5,891.333,30.5,839.167,30.5,775.417C30.5,711.667,30.5,636.333,30.5,573.833C30.5,511.333,30.5,461.667,30.5,395C30.5,328.333,30.5,244.667,30.5,181.75C30.5,118.833,30.5,76.667,30.862,55.112C31.224,33.557,31.948,32.614,32.781,31.781C33.614,30.948,34.557,30.224,59.685,29.862C84.813,29.5,134.125,29.5,159.253,29.862C184.38,30.224,185.323,30.948,186.156,31.781C186.99,32.614,187.714,33.557,188.076,36.112C188.438,38.667,188.438,42.833,188.438,52C188.438,61.167,188.438,75.333,188.438,82.417L188.438,89.5" id="L_S5_B4_0_0" class="edge-thickness-normal edge-pattern-solid edge-thickness-normal edge-pattern-solid flowchart-link" style=";" data-edge="true" data-et="edge" data-id="L_S5_B4_0_0" data-points="W3sieCI6MTYyLjA3ODEyNSwieSI6NzQzLjV9LHsieCI6MTYyLjA3ODEyNSwieSI6OTMxfSx7IngiOjE2Mi4wNzgxMjUsInkiOjk0OC41fSx7IngiOjMwLjUsInkiOjk0OC41fSx7IngiOjMwLjUsInkiOjc4N30seyJ4IjozMC41LCJ5Ijo1NjF9LHsieCI6MzAuNSwieSI6NDEyfSx7IngiOjMwLjUsInkiOjE2MX0seyJ4IjozMC41LCJ5IjoyOS41fSx7IngiOjE4OC40Mzc1LCJ5IjoyOS41fSx7IngiOjE4OC40Mzc1LCJ5Ijo0N30seyJ4IjoxODguNDM3NSwieSI6OTMuNX1d" marker-end="url(#graph-525_flowchart-elk-pointEnd)"></path><path d="M520.208,171.5L520.208,188.75C520.208,206,520.208,240.5,520.208,305.417C520.208,370.333,520.208,465.667,520.208,517.417C520.208,569.167,520.208,577.333,519.846,581.888C519.484,586.443,518.761,587.386,517.927,588.219C517.094,589.052,516.151,589.776,477.171,590.138C438.191,590.5,361.174,590.5,322.194,590.862C283.213,591.224,282.271,591.948,281.437,592.781C280.604,593.614,279.88,594.557,279.518,602.945C279.156,611.333,279.156,627.167,279.156,656.167C279.156,685.167,279.156,727.333,279.156,748.417L279.156,769.5" id="L_B3_S4_0_0" class="edge-thickness-normal edge-pattern-solid edge-thickness-normal edge-pattern-solid flowchart-link" style=";" data-edge="true" data-et="edge" data-id="L_B3_S4_0_0" data-points="W3sieCI6NTIwLjIwODMzMzMzMzMzMzQsInkiOjE3MS41fSx7IngiOjUyMC4yMDgzMzMzMzMzMzM0LCJ5IjoyNzV9LHsieCI6NTIwLjIwODMzMzMzMzMzMzQsInkiOjU2MX0seyJ4Ijo1MjAuMjA4MzMzMzMzMzMzNCwieSI6NTkwLjV9LHsieCI6Mjc5LjE1NjI1LCJ5Ijo1OTAuNX0seyJ4IjoyNzkuMTU2MjUsInkiOjY0M30seyJ4IjoyNzkuMTU2MjUsInkiOjc3My41fV0=" marker-end="url(#graph-525_flowchart-elk-pointEnd)"></path><path d="M279.156,827.5L279.156,853.5" id="L_S4_S3_0_0" class="edge-thickness-normal edge-pattern-solid edge-thickness-normal edge-pattern-solid flowchart-link" style=";" data-edge="true" data-et="edge" data-id="L_S4_S3_0_0" data-points="W3sieCI6Mjc5LjE1NjI1LCJ5Ijo4MjcuNX0seyJ4IjoyNzkuMTU2MjUsInkiOjg1Ny41fV0=" marker-end="url(#graph-525_flowchart-elk-pointEnd)"></path><path d="M464.083,827.5L464.083,844.75C464.083,862,464.083,896.5,464.083,915.833C464.083,935.167,464.083,939.333,464.445,941.888C464.807,944.443,465.531,945.386,466.364,946.219C467.198,947.052,468.141,947.776,581.069,948.138C693.997,948.5,918.911,948.5,1031.84,948.138C1144.768,947.776,1145.711,947.052,1146.544,946.219C1147.378,945.386,1148.102,944.443,1148.464,917.888C1148.826,891.333,1148.826,839.167,1148.826,750.583C1148.826,662,1148.826,537,1148.826,455.417C1148.826,373.833,1148.826,335.667,1148.464,316.112C1148.102,296.557,1147.378,295.614,1146.544,294.781C1145.711,293.948,1144.768,293.224,1120.323,292.862C1095.878,292.5,1047.93,292.5,1023.484,292.862C999.039,293.224,998.096,293.948,997.263,294.781C996.429,295.614,995.706,296.557,995.344,299.112C994.982,301.667,994.982,305.833,994.982,315C994.982,324.167,994.982,338.333,994.982,345.417L994.982,352.5" id="L_S2_P3_0_0" class="edge-thickness-normal edge-pattern-solid edge-thickness-normal edge-pattern-solid flowchart-link" style=";" data-edge="true" data-et="edge" data-id="L_S2_P3_0_0" data-points="W3sieCI6NDY0LjA4MzMzMzMzMzMzMzM3LCJ5Ijo4MjcuNX0seyJ4Ijo0NjQuMDgzMzMzMzMzMzMzMzcsInkiOjkzMX0seyJ4Ijo0NjQuMDgzMzMzMzMzMzMzMzcsInkiOjk0OC41fSx7IngiOjExNDguODI1NTIwODMzMzMzNSwieSI6OTQ4LjV9LHsieCI6MTE0OC44MjU1MjA4MzMzMzM1LCJ5Ijo3ODd9LHsieCI6MTE0OC44MjU1MjA4MzMzMzM1LCJ5Ijo0MTJ9LHsieCI6MTE0OC44MjU1MjA4MzMzMzM1LCJ5IjoyOTIuNX0seyJ4Ijo5OTQuOTgxNzcwODMzMzMzNCwieSI6MjkyLjV9LHsieCI6OTk0Ljk4MTc3MDgzMzMzMzQsInkiOjMxMH0seyJ4Ijo5OTQuOTgxNzcwODMzMzMzNCwieSI6MzU2LjV9XQ==" marker-end="url(#graph-525_flowchart-elk-pointEnd)"></path><path d="M994.982,410.5L994.982,427.75C994.982,445,994.982,479.5,994.982,498.833C994.982,518.167,994.982,522.333,994.62,524.888C994.258,527.443,993.534,528.386,992.701,529.219C991.867,530.052,990.925,530.776,952.848,531.138C914.771,531.5,839.56,531.5,801.483,531.862C763.406,532.224,762.463,532.948,761.63,533.781C760.797,534.614,760.073,535.557,759.711,540.112C759.349,544.667,759.349,552.833,759.349,566.833C759.349,580.833,759.349,600.667,758.987,611.055C758.625,621.443,757.901,622.386,757.068,623.219C756.235,624.052,755.292,624.776,708.966,625.138C662.641,625.5,570.932,625.5,524.607,625.862C478.281,626.224,477.338,626.948,476.505,627.781C475.672,628.614,474.948,629.557,474.586,632.112C474.224,634.667,474.224,638.833,474.224,648C474.224,657.167,474.224,671.333,474.224,678.417L474.224,685.5" id="L_P3_S1_0_0" class="edge-thickness-normal edge-pattern-solid edge-thickness-normal edge-pattern-solid flowchart-link" style=";" data-edge="true" data-et="edge" data-id="L_P3_S1_0_0" data-points="W3sieCI6OTk0Ljk4MTc3MDgzMzMzMzQsInkiOjQxMC41fSx7IngiOjk5NC45ODE3NzA4MzMzMzM0LCJ5Ijo1MTR9LHsieCI6OTk0Ljk4MTc3MDgzMzMzMzQsInkiOjUzMS41fSx7IngiOjc1OS4zNDg5NTgzMzMzMzM0LCJ5Ijo1MzEuNX0seyJ4Ijo3NTkuMzQ4OTU4MzMzMzMzNCwieSI6NTYxfSx7IngiOjc1OS4zNDg5NTgzMzMzMzM0LCJ5Ijo2MjUuNX0seyJ4Ijo0NzQuMjIzOTU4MzMzMzMzMywieSI6NjI1LjV9LHsieCI6NDc0LjIyMzk1ODMzMzMzMzMsInkiOjY0M30seyJ4Ijo0NzQuMjIzOTU4MzMzMzMzMywieSI6Njg5LjV9XQ==" marker-end="url(#graph-525_flowchart-elk-pointEnd)"></path></g><g class="edgeLabels"><g class="edgeLabel"><g class="label" data-id="L_B1_B2_0_0" transform="translate(0, 0)"><foreignObject width="0" height="0"><div xmlns="http://www.w3.org/1999/xhtml" class="labelBkg" style="display: table-cell; white-space: nowrap; line-height: 1.5; max-width: 200px; text-align: center;"><span class="edgeLabel"></span></div></foreignObject></g></g><g class="edgeLabel"><g class="label" data-id="L_B2_P1_0_0" transform="translate(0, 0)"><foreignObject width="0" height="0"><div xmlns="http://www.w3.org/1999/xhtml" class="labelBkg" style="display: table-cell; white-space: nowrap; line-height: 1.5; max-width: 200px; text-align: center;"><span class="edgeLabel"></span></div></foreignObject></g></g><g class="edgeLabel"><g class="label" data-id="L_P1_P2_0_0" transform="translate(0, 0)"><foreignObject width="0" height="0"><div xmlns="http://www.w3.org/1999/xhtml" class="labelBkg" style="display: table-cell; white-space: nowrap; line-height: 1.5; max-width: 200px; text-align: center;"><span class="edgeLabel"></span></div></foreignObject></g></g><g class="edgeLabel"><g class="label" data-id="L_P2_S1_0_0" transform="translate(0, 0)"><foreignObject width="0" height="0"><div xmlns="http://www.w3.org/1999/xhtml" class="labelBkg" style="display: table-cell; white-space: nowrap; line-height: 1.5; max-width: 200px; text-align: center;"><span class="edgeLabel"></span></div></foreignObject></g></g><g class="edgeLabel"><g class="label" data-id="L_S1_S2_0_0" transform="translate(0, 0)"><foreignObject width="0" height="0"><div xmlns="http://www.w3.org/1999/xhtml" class="labelBkg" style="display: table-cell; white-space: nowrap; line-height: 1.5; max-width: 200px; text-align: center;"><span class="edgeLabel"></span></div></foreignObject></g></g><g class="edgeLabel"><g class="label" data-id="L_S2_S3_0_0" transform="translate(0, 0)"><foreignObject width="0" height="0"><div xmlns="http://www.w3.org/1999/xhtml" class="labelBkg" style="display: table-cell; white-space: nowrap; line-height: 1.5; max-width: 200px; text-align: center;"><span class="edgeLabel"></span></div></foreignObject></g></g><g class="edgeLabel"><g class="label" data-id="L_S3_B3_0_0" transform="translate(0, 0)"><foreignObject width="0" height="0"><div xmlns="http://www.w3.org/1999/xhtml" class="labelBkg" style="display: table-cell; white-space: nowrap; line-height: 1.5; max-width: 200px; text-align: center;"><span class="edgeLabel"></span></div></foreignObject></g></g><g class="edgeLabel" transform="translate(161.8359375, 412)"><g class="label" data-id="L_B3_S5_0_0" transform="translate(-33.2578125, -12)"><foreignObject width="66.515625" height="24"><div xmlns="http://www.w3.org/1999/xhtml" class="labelBkg" style="display: table-cell; white-space: nowrap; line-height: 1.5; max-width: 200px; text-align: center;"><span class="edgeLabel"><p>approved</p></span></div></foreignObject></g></g><g class="edgeLabel"><g class="label" data-id="L_S5_B4_0_0" transform="translate(0, 0)"><foreignObject width="0" height="0"><div xmlns="http://www.w3.org/1999/xhtml" class="labelBkg" style="display: table-cell; white-space: nowrap; line-height: 1.5; max-width: 200px; text-align: center;"><span class="edgeLabel"></span></div></foreignObject></g></g><g class="edgeLabel" transform="translate(519.9661458333334, 412)"><g class="label" data-id="L_B3_S4_0_0" transform="translate(-62.2578125, -12)"><foreignObject width="124.515625" height="24"><div xmlns="http://www.w3.org/1999/xhtml" class="labelBkg" style="display: table-cell; white-space: nowrap; line-height: 1.5; max-width: 200px; text-align: center;"><span class="edgeLabel"><p>rejected (retake)</p></span></div></foreignObject></g></g><g class="edgeLabel"><g class="label" data-id="L_S4_S3_0_0" transform="translate(0, 0)"><foreignObject width="0" height="0"><div xmlns="http://www.w3.org/1999/xhtml" class="labelBkg" style="display: table-cell; white-space: nowrap; line-height: 1.5; max-width: 200px; text-align: center;"><span class="edgeLabel"></span></div></foreignObject></g></g><g class="edgeLabel" transform="translate(1148.8177083333335, 561)"><g class="label" data-id="L_S2_P3_0_0" transform="translate(-48.4921875, -12)"><foreignObject width="96.984375" height="24"><div xmlns="http://www.w3.org/1999/xhtml" class="labelBkg" style="display: table-cell; white-space: nowrap; line-height: 1.5; max-width: 200px; text-align: center;"><span class="edgeLabel"><p>issue/reorder</p></span></div></foreignObject></g></g><g class="edgeLabel"><g class="label" data-id="L_P3_S1_0_0" transform="translate(0, 0)"><foreignObject width="0" height="0"><div xmlns="http://www.w3.org/1999/xhtml" class="labelBkg" style="display: table-cell; white-space: nowrap; line-height: 1.5; max-width: 200px; text-align: center;"><span class="edgeLabel"></span></div></foreignObject></g></g></g></g></svg>